<mxfile host="app.diagrams.net" agent="Mozilla/5.0 (Windows NT 10.0; Win64; x64) AppleWebKit/537.36 (KHTML, like Gecko) Chrome/127.0.0.0 Safari/537.36" version="24.7.7">
  <diagram name="第 1 页" id="r8b8Q4R6kooscJy0NIV6">
    <mxGraphModel dx="162" dy="514" grid="1" gridSize="10" guides="1" tooltips="1" connect="1" arrows="1" fold="1" page="1" pageScale="1" pageWidth="827" pageHeight="1169" math="0" shadow="0">
      <root>
        <mxCell id="0" />
        <mxCell id="1" parent="0" />
        <mxCell id="gddQbef1XdykxiLe7t8b-11" value="" style="shape=image;verticalLabelPosition=bottom;labelBackgroundColor=default;verticalAlign=top;aspect=fixed;imageAspect=0;image=data:image/png,iVBORw0KGgoAAAANSUhEUgAAAaQAAAG+CAYAAADcAXDIAAAAAXNSR0IArs4c6QAAAARnQU1BAACxjwv8YQUAAAAJcEhZcwAADsMAAA7DAcdvqGQAAIyHSURBVHhe7d0PXNPV/j/wVylLHVedYkNzQaI1rEBrepO8V/Qq30y00FtoxS2dFdYN0rBbUMq1K/2R/kC3oFvor6iU/ojlrO40xZvivUpXoZKlQtK8ytKcGVMaUb9zPp8z2MbADUE/6PvZ49M+n7Oz8/kzPO+dP5/tgtDQ0F/Rhv79++P7778XW4QQQoj/eAypq6sTW227UDwSQgghZxUFJEIIIYpAAYkQQogiUEAihBCiCBSQCCGEKAIFJEIIIYpAAYkQQogiUEAihBCiCBSQCCGEKAJ9UwMhJGD6G42I1QWJrbY04MC2VTBVOMR2B1PHIPGOKGjEZkudvH9ySoF8UwMFJEJIgIzIMSUgQmydkrMKpsx05HdCUIjJKET6mNbDkcRpQ8nLKcjeQEHpbKCARAjpRHJACt2ejcQlJSLNm8hTUYZavYEFr84JSrGLipA2uhbF8akoEGnu1BPTkHtfLLQqkXBKdpS/lo6MNVax3R6+A7bTVoJcYzZaXLEJSUhWV6BwbTnOXMhUI25RPlJGnyKYuzitMC9j13Jb4EdIAYkQ0okCCEg8zzsRyMniFXQVitNZ4LCILB3gVAGJU49JRFKUPxWvDtdPjYaqzfPyhwEJ9xqgFVvQRiNutA4qfv4+jjMhazWMUSxiHmdB+0UWtNtR6QcqekEBlk5QoXztVvgTevtFxSFmYDUKp6ehSKT5iwISIaQTBRiQWB71mBRkL4xjVX7HBiV/ApL//DmvwOhnLEXG7GgxxuU7IIE9G3tfJub9XwTU3VgLbQV7zfsdGLV9CPS6nc51PqcCkjHXhIQhfM3Xmyn/AUlN4+pixKfwZ2OR+XYaDL15ojcHyp5LRCb7r2iBgTVaWYrPPz63Mo6XIfu2zJbN7CZux9BE7Gej2JzQvL/m4xTcn/Pe19wcmG6WS65aE4/U16RVxo99cu5lt+B1PVvdl0tb15XxPi9yDvOn4m6ZRz2Rffp/IAaaxo4LSqeuKDWIX5SLZH+7phjfdUI7TEhH4QJ2vvZymK1DERd1igpdn4ClGUZEa+woeyEZmZ045qXUgETTvk8Df5NMLQIDp4ZhgQlFi2LlzY1W1MprwJAo9k+1WezYyOaA0TsSsRPEOhM7KFSsVaFCBAi/93lKEUgwFSHTbX+nZUgCO64OLI+cE4K0MUi+N1lakiKOYmuFDVBFIHZGjMjREfphiNiH95LyjByMHIeqULX3VIutA8dwDEi7nQUjJwu+SzNQUS+S22IpRsbSYlQ5NTDMmsdK6EhqxNzSfF1itHyGZGvXzYj4KN8fYztbBwQkNaIN0c2Vql/YxRkXE+Br2oG3OOLjEd+0eLUgTgdrUaSNFmfgsZ9slB2Xk9Wj05Azl68VoKJaSmJCoWuqtGMRq3e/CmpopNYg5/bccTsLSUxA+/TEP/W5rkNx07GoETnW3wDmxuu6updnWJDjEXDJ+U0VFoP4qezvxLWMlEdWVN38nmXgBw2i3ffhtsQN18C+PR/Jd6cidf6pltLmD46nSX3HTFbpO1H1UXZgLUFLAbI/qoKTBfKZd3RUDSlPYEi/s/m6xITx69/adUtAcmYWks9CUDrtgKSdm42lmYuRda+/QYldnIW5SFuYir/e0jTs18XEspaAq43CPgF5dOmVIPM29ilHbEVMyGS5WUiqcKW4B50IaKQuMAccIqBERLmqc9dz7FlLCSs18H22pvlYOkZBintQimB//O0IcuQcU4BUtw8tzUvz32nH4d3PvvYlL0lLTLCLnGeGGjNH66FyVqP0NXnKQMmSRHYs/nV3WV8rQWW9CkNGxIuU0zUTU3gr0e1DadsLe49YK3b8zaPE68+c0w5IttfSkV/mQMRUf4KSHIySx7FPLZsLsPhd1nzviibEItI1llJd4eOPzK1F5OqGq7Y3dQeEDhIV9twouevteCUqj0gpQIhODiYTdKwtJas9yEJPe/bpk3tgc6BySwf0lTMFa8qazk8d0rJDkRBZOUrWmmAq7fiwdPo66tiuhy6EPdRUBjwjTVaMahbHVIMiESdSzhcd0GVnhykzxY+g5B6M8pGyzBxgfy0f82B/LB6Lr7EUN70NSHPP/3bbLQe/DdE0naPjiO8/3qojXme3kX3qcXWr6WOl4zBGiaM/YkWmq9XSWyOfU9M+xPhRe/bphnflydeheWJC1ZoO7MJ0HydjQZUQ38pQ/Eo+Cjeczn0+naWjjk0n9W447O0PbFV29m+Z1QXn27+kDprUwINSMnK3txaU1Ih5IPs0gtG5oARWVytICjqx8qcopqqCtXdeqxBdGRGImusWrHy2hk4Xn5HnayZdB2EBlhBCAtVBAYlzwLzEV1CSg1Ha/2lPMxj56ic+RX+096SGNqdvt09r3VMRIZ4hmWseuwmFbq6rC84Bu9TVVgW7aEGFDjI2BStfraFA9uki9x+7Jj/wyQcdPCPO1f1ISJv4TaPJSJqolM/+nXE8VunfslrT/n8RERr2b/m43a+bVgMjn2/LmXXycrbflw4MSJwISttcQckAw71ZUjCy/TP73GkZNbVmGK9p3DIjolwTF45XosTVLdY0jqSGJkp0wTU9X4ISi3hWH9cUrJrGeNq7Tw8lyHzNNdbDgtLcDurCZJpadIzU4iPEp2jE8plcMUr5+NIZx2NG5UEnEBaJpNY/I7YhEZFh7OGIFVvlhA4kzre15Sy/Lx0ckDgWlJa6glImMqfqpGCU9mLpuRGMJAUoZi1BWQQSPMamPG9ardro1ipzG0eKGCLnkGfQyUoOilGY3mo5WKEW1qbA0s59emPPmZsmP7BPSz6miAeG3zDrunmZqS7uvK5AQroI065qOFV6xM7RixT/6R+Ig17lhGX7qk6oM1ub/Sgv7jcEN487m6TbTezb12GVeK6zdEJA4uSglPU6O5nXz2Iw8p7UwBbve3TcL7q8eN1H00oZfBpn01RnjzzNgYF3k3lWzs2tIBdpBp2LeyuI8xo/at8+WypIcZsifnPL+4YibnaVKxbvySAe+3b79gbeRUrf1kAIHG+uQqkN0I6fB2MgMUlvxLzxWsBWilVvnpVas4mzphQmPuuQL69nIXlJ5/dwdVJA4hwofTcf+e+eSy0jT/z+m/jnmqc7N5PHu3x9/UhTK0jS/A0MsuZxJM7X+FF79tmSV2srt2UHYGDkSRKdMUZHSNdUhryVZbCr2L+vjKVI8CcoSV8dxD5cquwofSublXB2NbCgmP8Kq8P5cobqcfpyVUJIgPz5LjuZ/B1o/gyk8A9UgX9Pmj+/h8R7DVzH2dnH463py1UbHaj6Zx4yXy7xcZOuBoaZqZh3qwFaFow6/stV/X+/ZIHmb9s59eWqhBClkSssXU0pzBVHRVozR9W6pnt5omdnYo7HTz8EI3SYFkF2K6xHnCKNs2L9/GyYxJbf1HFIWTwFEW38eK29YjkyV5RL651+PD6oxyQj64F4RPCubRaYbAdqYbdV4VtcigitBqGDtVB3Y8912s9PJGLpe0mIZC0eX+9XS/LPcDg3ZsD4nHzdTgcFJEJIJ9LDmJuFhCG+v4/OvUXSUsd++j59Z+p41IieasStU0Yh8mINVK5L53TC/l0ldnxSjMI1ZZ33FUd6dp5/S0BED7F9CvbtuR02ZkQBiRCiUOdrQDp/BRKQOnFSAyGEEOI/CkiEEEIUgbrsCCGEdBrqsiOEENLlUEAihBCiCBSQCCGEKAIFJEIIIYpAAYkQQogiUEAihBCiCBSQCCGEKAIFJEIIIYpAAYkQQogiUEAihBCiCBSQCCGEKAIFJEIIIYpAAckL/4ljk6kImRNEQgDk1+bAKLa7hNFpKPjAhNXPG6ETSYQQcjZQQDrfBavg+3c/CSHkzKKAdL7bmIWkm+IxfX4BrCKJEELOBgpIhBBCFEF5AUlvgCFErPtLH4tYvVgnhBDSJSnsF2PjkPl2CgyNZcifnwnTEZHcFn0Ssv+aCH1dCbKM2SgVyacUEovkh5Mw/got1N3YdqMd1k1FWNc7CcmjgbLnEpG5Uc7K6WekI/VmA3QaecTFabeibE0Ost63SNscn9SQNroWxfF5OPpIKqaP1kHK3uiA7etNKPhrPkodcl5MyETRAgNq18Qj9TWRJjSXk4oCkQZoEHtfBpLG6aFVyyn2GjOK1vVD0n0GYHs2EpeUyE8w6qhEpN4bD8NgDVT8/Bw2lH+UC+u1SxE/pMqtbCNyTAkIdXt90/4Tl6PuoWRMv1YnXyOnHZYPsrH49XK4TkMS4LUkhJw/uvAvxpqx7CkTqtQGJD+fifhTtZRcwQgWFC0LIBipWeB7Pg3xwzVwfl0C01oTTFtsCB6bjDkjgkSmZvq5LPDMjoG2sRolPO/aEli76RAzOwvZM0V0aKKCblEGjFFA1b94XjPKDgDa4fFIe9LIjrU91IhblIu0G/XQnLQ0HYNNzQLB3Ci0OGK9EVmZSYgZrILtc7N0fuavnBg6fTHiBos8pxSMqCcXI1F3FFs/YvvbUA4bC4r6W9KRfqPIwgV4LQkhpDWK67JzVOQjPdOPoOQejBanobC5oXJKsQ8ZYdA4UbUmHUkPZyP/lXzkL0tDUnIRqr3nnIUZMe/GCKDGhPS70pDN876SjdS7c1F2XAX9pHmIFlllOkRptyLttnnIfIHnzUXm/XNQUOGAasgUzL1FZAvEhIUwjmYVfnWxxzGk3ZWOYhbsPI9YB+N9UxChsqPsxTmYtyRXOr/cJfMw58UKOPyeUqdlJa1D+t0ZyOX7eyEDKW/wlpEakRMSRZ42ruVjxbDS/D1CSAAUOamBB6XU9OLWg5I+AUsz2heMeLdgrJ61ao6UofA1rxceKYSZBQ53umkxrHJ3onJ9PtubG4cZpXtYXq0OBpEk85GXVePF7+5gLQzWeroyTqT5L3ZsJAsDLMC8WeBVrgUFH7IgI7YkrMUSNUQFp4W1Njd4notjwzJsrREbp+RAxYee+3OsqYDVyQJgTw07Ho6P3bVyLS0FWOd1LQkhpC3KnWXHKjSfQUkKRkZEq9oTjDgdNL1Z2DhYiTKR4s75i1gRIjTB7P8qRM81wWTyXFIMvFoOhc7jJlobrOvFqruddvBeVHW/wG8/jQhh+6n/FpXbRYI7r+PFb3XsiPj4UolnoJI40NAoVk+pFtYNYrWJDXX17EETilHSdkRA15IQQtqi3IDEuYJSTxGUhsUjkwcjlKOgXcGoWYMzkE/vdlj4OIo0dtNyKa0S2SRONLRRtNPp3+BeC84GHwGmdU7nUbHW+QK7loQQ4puyAxLHg9JjrqCUDAMPRkszUNzuYFTHKlDWUrlE7/OrcjQ9PAfi7Seldg1+OsjHbXwthTB7dIN5t5iEm4dI+7PbPA+8nzZGrLmo5RaRO96q6a2DPkze9NA7yHNSg9PJQiKgDfPVNaiDuqdY7UD+XktCCGmL8gMSJwWlfBSvLUb+aQUjzoTKA+xh4PUwTvSs+NVRKYiP8hyIL99cxdpHKkROSvZzhpwakRMToBFbMj1SpkSzUmyo3FwuJ1UdlbrwNOEGz3L1RsQMEeuCeS//DgUtrp8dJ8ZuBHW0KNfNlgp8yxosKn0ckr0OWDMjGdcPFBsdwhzQtSSEkLZ0Cw4OzhTrPvXq1QsnT54UW2fRkT3Y+flO7PHn3qQ2NWDnT+GYPCYCEdfdiN8NHQSdfiRiphjxwO2X4aj1F/TrCxzc9h5KvmHZ//dfOIZORMyV0YiL/x0u17GWSrQBht/FY+ZdRiRF21H82X6p5PBxtyDmkgY4VL/FH2+8EtpBl2OkIRZJD92DUSGsdbR9OTLfrmJHwPxwEANGxSEy7HLEjhd5J8xE6l1XofG7BgT/pg6Wtz/BTpb1+A4HwifHICLit7jx+ssxSKfHSLZ/47wkXHbcil80fdhxluK9zfw49mDvb36LuKvDERk7GddcqsWQqw2ITUzFn3/fiIOH+6Hfb+xNZQPXYPJtkQhuer3rPJr33ywcsTNiMAgHUfp+CfbjOMpOBHAtCSHnHR5DnE7eb3NqXaOF1NE2ZiF5qQkWG6AbHYf4qfGIHcZaQ28sRTFL8+SAeUkKsj+ywNZNB8PEeCl//O+joG2sgnnjDpHPpRYl8/NR4rwUcTzf1FhEdLPBspbtc4nZbRzIioLHsmHaawcuZsGO5zWoUfXWYhS2+FK5EmQlZ8G0mx3cYIOc9/cRQEUBlq5pccCwrkhF+opSWB1q6MfJxzuqvw3mZ9NR0dGfLQK6loQQ0jqFfVMDCdjETBQ9aIBzWxaSlp7q1mA1kl8qQnyY+zc1dJ64zCKkGJwofSoJWVtEIiHkvNKFv6mBBMpgiGBhxglblR/fU6GejqF8DMlm9TlNu2MZYAhXA04bqigYEUL8QAGpK9MbkTRawyr9auxYK9JapUbcQ3HQq1g8spRATK3oNPq5SdKX5Dqrd8Ak0gghpC3UZdclGJFdFAN1jRWVVbXStO7gwdEYFcW/9NQBy5tpSFvVPPAU+0gBjOF1+LaqEtbjLKFnKCJHRCEiRMUaLCXINWaj+WtYT9PsbBSNVcNaU4l9NunIoBs5CtGDWevIYUHhw2ko8vvbIQgh55pAuuwoIHUJsUh+PgnjdVqoe4ikRifsBypQ8k4OCjbbRaJMNzMd6VMM0PZWyd/0zTiP21C9vRiFr5pQ3pH3sU5IRs7t46ELUTftC/V2WCtKUPRyAUpOe1YkIaQro4BECCFEEQIJSDSGRAghRBEoIBFCCFEECkiEEEIUQdEBaeDADv3iNUIIIQpGLSRCCCGKQAGJEEKIIlBAIoQQoggUkAghhCgCBSRCCCGKQAGJEEKIIlBAIoQQoggUkAghhCgCBSTFMiLHZIIp1yi2z7C5OTCZipA5QWxDjcRnVsP0QSHSm9LOMnUist9j1+j/pSNWJBFCuq7zIiDphnfDkBCxQdqpH4KDxKpShARDaYdECGm/cyIgzcmJxNq1bHlLg3EiTR3VA4vzhkjpLz99OXJWsOfXDMPLqa4f7SGBsaJg/nTE35SErI0iqdPEIy2/EAWPnKLdU1OA1D/GI/6urI77wUFCyFlzbraQ1D2RufgyGAZfJG87G+THbhfAYWuU14mCaaEbrEGwSmwSQs4L52ZAurUP9FJl1gjr2j2YOmMfpk6txH0536B4rZSDEEKIwij6F2P5t30fOnRIbLWOd9klDGErx2uRfbsdm+eGYu1NGpbAAtJHVViY14jT+tVuPsB/cyjKnktGiT4TxokR0PCA1+iAdVsh0p8yweNHxNXRSHwgGfEGHTSunxznP+tdtho5TxXDIpJkakTfkorkaQbopELBWnHlMOVYYciKR0R1MeJTCqR0iToGyYuNGH+FFmre+8iOwfb1JhT8NR+lAZ2kBrH3ZSBp7BDpp84lTjssa7ORtqLc7ZwTkSm66GIXFSFtdC2K41PhdkTQz0hH6s3Nx++0W1G2JgdZ77vONBaZb6fBcKQYia/VYeF901nrVS0947RbULxsMQor5IM35prk99KDw+M4mjWX636NvI/H47wIIWcU/WLsZ6ySlla6QXfjMKx6Q4sHburOquDTo705F2ljgfJ/mmBaW4KqejV0Y5ORdZ9O5GDUcUh/aSmr6HVQ2cpgXivntdTxvEZk5RqhF1k5/dwsLL4zBrpuNpRt4HnNqKwfisTMOLiVKmNlZ+anI354MI5+bmZ5TTBX1EEzPB7puaxiFtlOTc8q/gKk3aiHxlmNEukYTSjZ54RaG9hV0rPAlTU7BtpGVzklsHbTIWZ2FrJnykGnSc8oZC1KhO7wVvnYd7J3SaNHYgY7J5GlfCMvo1wK8M6aUikfX0qr5OdPRT0zWz6e+srma29XQas73XefENLZzs2A9PWPyF5RC1s9b/xdwCq9foibOwxvrOiHhCvkLIFjAUVThdy7U5H9Sj7yX8lG6mKzFPh01yYiWs6E2IeMiAlxompNGhLvz0SuyJt2VxJyt9uhGjIFc+8QFXWYEfNujIDKXsbKnYfMF3jeXGTePwdZPK+cqwkv26BhrYUX5mDeklyWNx+5jxuRvtYKpzYGM2eKjKdgWLiQtUJUsG/PRdJdaeJ88pH9MDuepwKYHiCOHzUmpDeVw67L3bkoO66CftK8pusiGchC7CfpMD7uOvYUuWWkjkSsOPayNbyMahxl6w22Uilf/iuFMNfIz5/KzN/q2XWzwvxgRvO1N85Byss7RA5CiFKdmwGJsay2Y+5dXyN3dS2sx0WvZIgWd9zdk4WW9rFuWQaze7eYZTMqeUTqGQytlJCASVGs9CNlKHzNs2OOdzuZn2WtKlZd6q+Va1/1DQZEqJyw/NOrXJa39MUdrFp1J8o+tBUFGzz75ixvlrPAqILucn/uxolF/Eh2tEdKkbPEfFpdmbppMdLxV67P9+yGdJhRuoeVrNV5ttqOV2Cdx3VxoLiCBVN27Oo+7X1XPNnq+BlpEXlHtNv77ID9yOmcKSHkTDgnApLKNZO7vtFzLMfxK9avsOO+2/fCLIaiVGFqxMmrAXLAtte7UiuHnSf11ojutX4I7gE4D1aiTNr24qiC/Th7ZIExhj2M0vZj/7fj2898VJaOBlZRu5PLxsA45PEbZt2Xonhp/+oQ1lrhJmSiyDtP002uEdD0buMYAxChCWb/VyF6rve+TEgx8HAQCp37TbRHWMtFrDb5rg58DmQ/7Sh5+zSZ3jLBwlpnEVOXoqioANkPJsBA96AR0iV02YCkFh9/1VHBiBK/dO60N6CCr4RdhOTZQdC5PiKzRzEBHDjZKMaXlMIJ5xGx6gf3cZUWy0YxaP+fAix+PAMZHstiFPxHfpprcHZUi8EOy0c+jkUs/o79dBhLIdJuS0Lmm6WoqguGfqIRmQWFSJ/Y3F4ihChTFw1IF2DO83qsfXcYVi3VQScNtvyM6rKT0rPqSRpMmT4UL6/ieYZi7arLMU4KWizPv46jVMrVGY6irp61GQZF+p5goBatE1uVdAz2k3zmiRa6SdKznlhLjrc/mrGWBGsyqVR1WCeNjfhY1og2j8MKy85ylHssFlilGCSXo9ZFeY7vtIN8/Gr8dNDHsUiL/2M/HcuOslVZSDUmImlZCWyNGsTMWUhfL0SIwnXRgNQd/dQXAD26y5uNJ1G99htkrpI3o4NYlVTPb4DlecSXyzjqUPFuNdJf68wbY4uxrZLV+iEGJM11n0vHqRH3UCwiWIuouswkpZR/boUDKkROSvaYecenZCfce70Yl3IxobyaRZKB18N4Wp/2TdhqYceojcGcFscYmPLNVazq93X8HUOtEV2QAdCEeM6ms2/Oww7eXdvDNc5HCFGqLn0fkmZYN2hPNsJyQCT4MGRENzTsbRStg3bycU+Oi3zfTFXzvTnS1OwUGFi96Kgpw9aKWhaCgjF0TAz0IfLMtuSmyQQ6GJ/PQcIwFZxHLCjdto+1X+S8Q45bYR8SAa37fUh6I3KyEqSJBPbdpdhaJc/tDx4cjcjLnShN9Lw/qFU+j1GFUH00tLZCeaadX/chsSC7KB8po1lB7HjLtpejljdSe4ZiqJ4du7UASUv5rD3f9wtJ+HjXAtae3J6NxCWuGX4if287LBu2Yp9ah+BtGSgKy0HOjAg4tmQjSZoN2LJc/n7EqS3YsZ1fS9aiHDwKsSO1aKgowJz0YnHdCSFnynlzH5KdBZq2ghFXves0g1GgHGZkJmehaKeVRVQD4qbGI35qLIbw+4zezXILRhz/frh0FGxhLaXeesTyvDeOguY7M7IfrZAqVA+WAqRnFqK0xgH1FbGsXF52PGIiWKDbth5bRbZT4sc4Pxum3Ta3Y4xDFJ+ubglk0McB85IUZH9kga2bDoaJ8vHE/z4K2sYqmDe2d6p1CZYtL2HvmwZ6XubofvzeVr9UWaxw9hHXki1xkSpYN+RjMQUjQhTvnPimBnK+aqPlRQhRBPqmBnKeEJNEnP79sRNClI0CEumy1HdESvdfWS3yJBFCSNdGAYl0KbGP5CFnYTKSF+Zg+S16qOylKH6NRocIORdQQCJdir0eiBgXj/hxEcChMhQspR/nI+RcQZMaCCGEdBqa1EAIIaTLoYBECCFEESggEUIIUQRFByQaPyKEkPMHtZAIIYQoAgUkQgghikABiRBCiCJQQCKEEKIIFJAIIYQoAgUkQgghikABiRBCiCIoPyD1DMWAsFBcdIHYJoQQck5SdkDqMRjhI65EyOArcdlVlyokKKmR+MxqmD4oRPoEkdQGw4ICmEyrkTOb/3IPIYSQ1ig3ILHg013dB0HiCC/oPYwFpcEIOutBqR+Cg8SqH4JVKrFGCCGkLcr8+YkeoRg8fBAcu/+L4z2G4dKhg3DRRd15jMKvx79G1ZcH0NDmUZ8FN6Yhb1YkrCuMyNoo0ggh5DzXtX9+ggejq6/Eb3pqEHr11eh1Yi++KduMqm9+kJ6+oPcViFBES8nLIB10mmBQe4gQQtpHWQHJFYxctbqqH3r1kFcbjh9Bwy/yumKDEiGEkHZTTpeddzByce7HN59b8XM3J35VX4EhVw5Gd/FUx3bfaRB7XwaSxumhVcsp9hozitb1Q9J9BmB7NhKXyD+WHbuoCGmja1Ecn4oCGJFjSkCE9Iyb42XIvi0TJXNzYLo5FGXPJSLTrStPHZWI1HvjYRisgaobS3DYUP5RLqzXLkX8kCpRNieXH8r2n7xZj8y5cYjQyBfJcaAUhY9lwXRE2hTUiL4lFcnTDKzFJi5moxP2A2VY/WIWii1yEtd0Hmkl0D04kx0LO/HqYsSnyHvWz0hH6s3N5TjtVpStyUHW+26FEEJIG7pel11rwYhTdUe3X9QIGXEFejq+xt5/b0b1nlr8zJ7quJaSGnGLcpF2ox6akxaUrDXBtLYENnUskudGoe05DOVy/go7W3fCuoW/li3/LEWVnKElvRFZmUmIGayC7XOzlN/8lRNDpy9G3GCRx5s2AbkLxgMVcv6SvQ6oB8cg+W/JaJ6/x84jIx9L74yBrpsNZRvkYyn5muUNi4ExKwdGvcjapB9iFk5H0KdZSIyPbw5GLJBmzY6BtrG66XpYu+kQMzsL2TNFxCaEkA6kiIDUc2Ck72DkTjUYg3Ua9mn/Z/x0uBrfO+RkHpQu7neapzFhIYyjNXCy1kH6XWnIfiUf+a9kI+2udBQfYLsW2XwrQzHPX32UrTfAtp2/li2vm2GVM3jRwXjfFESo7Ch7cQ7mLcmV8ucumYc5L1bA0crO1GH9UMXypy6Ty8+evxhm/nNRg0chcaScRzqPMfJ5pN02D5kviLwPJyHphTLYVRGYMjeJhS13rIW2NwcZ75ZDXFIgzIh5N7I2X43J43qk3p2LsuMq6CfNQ7TISgghHUURAenkob04KcaH2nJB/0Ho3bM7LhowBP1Frcq77b476seL2xA7NpJV0ixAvFkAz84oCwo+ZEFCbHUIdRyihqjgtJixbINnyY4Ny7C1Rmx4q9nqld+CzXts7DEYwf3llISJUa2ch1x2STULrnoDZoo0mQNVZWViXaabFsMCphOV6/M9y3GYUbqHHYNWB4NIIoSQjqKMLrv6A9i/q5Wg5J6mCsUl14zDkMtDpXGkjhpDighh0a3+W1RuFwnuTi/WtfRbHULZg72mxEegc6ChUax6cdgsLfKX23m/rBqacHm7XzBrXrV2HjzwHOEl9IN2rJwiO4rabWJViNAEs/+rED3XBJPJc0kx8E8CodD5cVMwIYQEQhkBiTv5rY+g9DOOfvU1q0rtOLKXj9E06/D7kZwNPgJE53E6eRefEjjR4PPE7bB8xMeOfC+lrQ6QEUJI+ygnIHE+gtKF3Vxz6pp1eDDirZLeOujD5E0PvYNOMakhQE4nCwGANixO3vagg7qnWG2Ho3Ws5B6XInK0SPCglluCThuqtoikVthPyi2vnw6K8bAWSyHMrXUtEkJIOykrIHEeQak7+uqvx9Brf4ehwzTS0x0ejBjzXj79QIvrZ8exatiNOhopU6IDuNlVDY2voOZuSwW+ZS0SlT4OyV4z3jQzknH9QLHRDsVbKlkrTwPDHUZ4T6ZTT1yI2CEsHlXvgEmktaZ8cxVrH6kQOSm5RTmEENJZlBeQOPegdGF3BPVQdeDXBulgfN7zy1GtLxeh1M4qbUMKlr+UiZR7k5H8YCbyXl2KUSet/nXlVdulfBETsqXXpz+Rhlj5GS8m5H9SBadKh/isQmQvZPti+dOeKUTBrGDU8plz7fVRFgq2s1AyJAHZb+ch88HmsgsfNEBjL0P+4qJTn8/2HBTycsLiPcrh1yQ7n5WV4fvMCCHkdCgzIHEsKFm/qGrqvuuMllGzEmQlZ8G02wYMNiBuajzifx8BVBRg6Ro+k80PG5ehYDMLXr310utjBjhZK8M364pUpK8ohdWhhn4c2xfLP6q/DeZn01FxUmRqFwfMS5KR9W45rKzFZ5golx07FLBtL2LnmAmzX9GVl5OC7I8ssHXTNZUT//soaBurYN64Q+QjhJCOo8wvV3XHfw/p4l9w7NvvOikYncLETBSx1oVzWxaSlpaKxM6iRvJLRYgPc/+mBkII6bq69perejtZi8M1ZykYMQZDBAsTTtiqOjsYMerpGMrHkGxWeN4ZRAgh5z7lB6SzSW9E0mgNnwmAHWtFWqdRI+6hOOhVLB5ZSlAuUgkh5Hyh/C67M8KI7KIYqGusqKyqlaZlBw+OxqgoHdTdHLC8mYa0Vb6/CKg9Yh8pgDG8Dt9WVcJ6nCX0DEXkiChEhKjgtJUg15gN+WtcCSGkawuky44CkiQWyc8nYbxOC7X4uQv5G7IrUPJODgo2tzY9oX10M9ORPsUAbW+V/E3fjPO4DdXbi1H4qgnlfk08IIQQ5aOARAghRBECCUg0hkQIIUQRKCARQghRBApIhBBCFIECEiGEEEWggEQIIUQRKCARQghRBApIhBBCFIECEiGEEEWggEQIIUQRKCARQghRBApIhBBCFIECEiGEEEWggNSauTkwmYqQOUFsQ43EZ1bD9EEh0pvSzjJ1IrLfM8H0/9IRK5IIIaSr6pIBSTe8G4aEiI0zph+Cg8SqUoQEQ2mHRAgh7aXIn5+YkxOJhCFs5Xgtsm+3YzNbVUf1QNq8QTAMvkjKI2n8GdZN1bgvp1EkdCDeQro5FGXPJSJzo0g7Y+KRlp+IyP0FMD5FP9VHCOm6zr2fn1D3RObiy5qDkbNBfux2ARy2TghGZ50WusEaBKvEJiGEnAe6RkC6tQ/0UuXcCOvaPZg6Yx+mTq1kLaNvULxWykEIIaSL6xoBSfzMt4Stq8WqdUMDStv9c98axN6XjYK3V8NkMsnL6kJkz44Wz7cUu6iI5cuBUWy76GekI6+wuZzVhXlIn6EXz8qaXquORuKiPBR94LbPO6ObzsmYy9MTEMHW1aPTRJnukyvcxSLzbfZ8rucReR/Pqc6LEEKUoGsEpM8csEkr3aC7cRhWvaHFAzd1ZyGlvfSs4i9A2o16aJzVKFnLKm22lOxzQq0NrFT93BxkzY6BttFVTgms3XSImZ2F7JmuMOMSjKgnFyNRdxRbP2J5N5Sz89JAf0s60m+Uc5Rv5GWUw87WnTWl0nHxpbRKfv5U1DOz5eOpr4RZHI/FroJW1/6rRQghZ0LXCEhf/4jsFbWw1fP5Fxewxk0/xM0dhjdW9EPCFXKWQBgWLkTCEBXs23ORdFcasl/JRz5bsh82Yl4gkwjCWP4bWVumxoT0pnKykXp3LsqOq6CfNA+e7RItdFiH9LszkMvzvpCBlDfK4WDto8gJiVKOsjW8jGocZesNtlLpuPJfKYS5Rnr6lGb+Vg8VrDA/KPbBjifNOAcpL+8QOQghRJm6RkBiLKvtmHvX18hdXQvrcTExMESLO+7u2dTd5Z9YxI/UAkdKkbPEzIJB++mmxSBC5UTl+nxYRJrEYUbpHlayVgeDSJI5UPFhgUdex5oKWJ2AqqcmwPPwzVbHz0iLyDuauwH5fu1HTudMCSGk8ykyIKlcY0b1jVLXVRPHr1i/wo77bt8L8yE5SRWmRpy86qcIaHoDzoOVKBMp7RWhCWb/VyF6rql5vEYsKQYeDkKh8xj7YcF0g1htYkNdPXvQhGKUnHBaTG+ZYGGts4ipS1FUVIDsBxNgOOP3bBFCSOAUE5DU4uO8OioYUQPldae9ARV8JewiJM8Ogs71kZ89Nt2NdLJRjC8FpsHZUS0GOyx8PEiM9Xgv/o79dBhLIdJuS0Lmm6WoqguGfqIRmQWFSJ/Y3F4ihBAlUkhAugBzntdj7bvDsGqpDjppivfPqC47KT2rnqTBlOlD8fIqnmco1q66HOOkoMXy/Os4SqVc/qpjwYiVqYvyGt8JnP0kv9lLjZ8O8rEaX4v/Yz8dy46yVVlINSYiaVkJbI0axMxZSF8vRAhRNIUEpO7op74A6NFd3mw8ieq13yBzlbwZHcSq2Hp+AyzPI74sx1GHinerkf5aoDfGmrDVwsd3YjBnrufU7ECVb65iVb8KkZOScXol+abW8MnfgdGEeM6ms2/Oww7evdkjGFo5iRBCFElRXx2kGdYN2pONsBwQCT4MGdENDXsbYT2dHjd1HDLzU2BgdbejpgxbK2rhZIElVB8Nra1Qnmnn46uD+L1EaaNrURyfigIpRY24RflIGc0KOm5F2fZy1PJGXc9QDNVHQGstQNJSedZey9e68HuJ0mBAGbJvy4TILaf1tsOyYSv2qXUI3paBorAc5MyIgGNLNpKk2YAi35FixKfIpfL7mOLUFuzYvo+1BQHV4FGIHalFQ0UB5qQXn9YkDkIICVSX/eogOws0bQUjrnrXaQYjzmFG5vxsmHbbgIEGxE2NR/zUOESFOFFlCWTQxwHzkhRkf2SBrZsOhom8HLb8PgraxiqYN7Z3qnUJli0vYeepgZ6XObofnB6zO1pXZbHC2UePWOmc4hEXqYJ1Qz4WUzAihCicIr9clfirZQuJEEKU5Nz7clXSCjGF3enfm00IIUpGAakLU98RCR17tFpMcgIhhHRh1GXXxcQ+koeExnJUIhLjx0ZAfbwU2UlZYjIEIYQoC3XZncPs9UDEuHjEj4sADpWhYCkFI0LIuYFaSIQQQjoNtZAIIYR0ORSQCCGEKAIFJEIIIYpAAYkQQogiUEAihBCiCBSQCCGEKAIFJEIIIYpAAYkQQogiUEAihBCiCBSQCCGEKAIFJEIIIYqg/O+y652OjGnX4DfSRgO+Ns/Ciu+kDUIIIQp3bn2XXW+NCEacEyedYpV0GbGLimAy5cAotgkhxBflB6QLxKPEju9+EKuEEELOKYoPSBF9NGKN+fE7/K/NDkZCCCFdVRdoIQWJFebYd6gSq4QQQs4tig9Ig36jFmusgXTsG/ws1gkhhJxbFB+QgrqJFcb+/adirQOoY5D8TAGKPjDBZGLLB0UoeCYZMc3xjzEihz1XtCgWmnHJyClcLeflafnpiA+Rc+nuy5PS8u7TyQnuwpKRx55bnZ0EV9G8rOyCIqxu2vdqFBVkI3mMK4cOyfn8uQKkjRRJ7m5ciiL2usJHDCLBJR5Li9jrVmcjUaS4k49zNbLv4PtRI/qWdOS5nZNpdSFy7o1pOk7J3Bz2XBEyJ+iRsCiv+XoVZiMpiuf0Si/KQ+YMvfxaQggJgMID0m+h6S1W4cDR42L1dKnjkMkDyvBgHP3cDNNaE8wVddAMj0d6bhq8q3loE5C7YDxQIect2euAejALaH9LZqEDsL5eCouTVfgjE6Rtd7ppo1iaA5UbC9n/WfXNKviChfHQ93GiegurwPm+P7cBIXrEZ+QjcyKv5K0o3GKBE1pEToyWynGXOCGSBQ0rtq4sEykuJhTvtAOqIRg1UyQ1iUbitezoHJUoeZMdyYSFSL8zBtrGapSwYzCtLUFVgwYRU9OQNbtlYNXenIGZuqPY+hE73p02ODV6JD6yEMmLMmC80okdLN20oRy2IB0MsxcibbR4ISGE+EnhAUnl1kL6Dt91UECKfcgIg8aBshfmYN6SXOS/ko/cx41IX2uFUxuDmV6VuTqsH6penIPUZflS3uz5i2E+xJ4YPAqJvAXjKMSOahaRBrJK36NFw7ZHaIHjlVj/EdsMM2LejRFQ2cuQe2cS0kR5uUvmIfEvxahyamC4I1UKiI43S1DJ4ob2yimeAVKdhFFDVHBaSlFYI9LclK3cykKVCkMMzS0yyegpiGaHYt9ZzMIWV4d9/8xC0l1pyGbHkP9KNlIXm2Fjr40wTPF8LdvS9dyBxXdnIFdcq9zt7OB6GxA/4iiKF6fKZbyQgZTVIpCOaxlICSGkLQoPSJehn+smpON2+Kh/2yEBk3hX06GtKNjA2yzNLG+yT/isQtZdHitShJqtWOaR14LNe1irBsEI7i+nFG2sZC0gLaL/zy18uIJABWtVsU3dtBhEqJyw/HMZzJ67ZkUWoHgXSwyJRNxYnmDC+q/EtltrQz3LAL2qucXVQk0hyqp5Iyka092iSuwN0dC4t6o2ZiPjxVLPMiwVsPKgrwnFKDmlibWsgJ11s5KKfSzwgAXGEhS4PeEo3seuIStCS912hJDAKH4Mqek+JPuBDpph1w/BPdjDwDhpbKdp/EQa/4iXutzUIRFSTheHzdKi8i+38zuP1dCEy9v4aD0qWWWu0cc1tWi8g0CEJpj9345vP/MZSlBysJb9XwPtMLH9STnLrUH0Da4AqUOSgR2bq8XlkwOrtrNWikoPwyxXRIrHpCvZenWZR6tKY0hA8qJs5LxUgKL3VmP1B2kwNHWRunPAttfrmI83oIE9NNTb5W0XR4MUqFQqfq6EEOI/ZQekixpwtPobVFXvwbbKjSKxYzhrSqXxG5/LxnKRKxAlMFWwyrmpRSMHgda61vyyvRBbD7Cwd+UkVhoTloBRg5tbXK1xdfdFGJLkMa2bxyBSzVpm21eJwKpGXEYhCjONiB+hhcpZh33/McP8UQmqOmqcjhBCAqTsgPTTSqwqXYhXS9PxwRFWM3eIOjSwj/AqVR3WSWMnPpY13pMF/FO2cgdsrhaNFAQ8u9aqpFaVBpf+znOExiV2UCj7vw3WXfJ20+QG9VCMuRGsxTMKWp+TGbyJyQ2DozElTI2ksZFQuSYzcOqZmDJGw4KyCWnTkzBvfioypPGsCtYiI4SQs0PRAannb2ZgytWLMTP8Blzs8RVCp8OEcmkCwvUwSjPaOlBNMXbwFo0+Fmk8CHh1rVk/3CFNOND/30LEee9ab0TCCJZoY4Fjp0hjHMXlqHaqETk2BfFRLIj42eIq21jJgosOoxKMMOhVbpMZmJFa9GMPDYerPcaF1DePQ6TPLjtCCOl8yg1ImnQsmDYLv4u+GiPGzsWCcXPdvmT1dDhQ+No6VLFK3vBgIQqfSUPyvcnSkvZEHgqKTudLQEWLpncUYoawIODdtVaTj5w1VXBqDEh5vRDZC+X9pvD7eJ5OQASqULwsGx7tH0chSr5yQMWCXFRvH5MZJqSj0GTC6ueNcveci+ju0/4+lqV7taq2VOBbVojaYETeohT5GJ4oQOEdoaijLjtCyFmi3IAUrMFv3FtFag0uFqunzVKA9MxClNY4oL4iFvFT46UlJoIFkW3rsVVkaw+5RaOCSuW7a83yWirSXzaj6qQa+nHyfuOu7Ye6r83IT0/1mLHmYlpbDruKlenYh22tTmbwJoIjf92BcqzzaFWZkPWCCVX2IOhGx0nHcP2gWhQvKWKvIoSQs0O5v4d0wR8w44Z5GMWnVf/agG//tRgvW/fIz51vRrNW0KIY1rLJRNJT/o9vqe/IRuHMIahelYQ01/gRIYScQefG7yH9+ine//iPeGzVQix9e9b5G4yY+Kle9xD5RYeksXrPyQyEEKJgyp5lx/z88zf48Xz+yQl1EmLbM318dBKu51PE3SczEEKIgin/J8zPU7ELliLGYYd2XCwielhhSp+HfB/jS96MGdlQO35C9NhoaJ1lyL07s+W3QhBCyBlybv2E+XnK2fNSxExlwaibFSUvp/kVjCQhesRNZMHopAVFSygYEUK6DmohEUII6TTUQiKEENLlUEAihBCiCBSQCCGEKIJfY0hf975WbBFCCCH+CfnGTGNIhBBCuh4KSIQQQhSBAhIhhBBFoIBECCFEESggEUIIUQQKSIQQQhSBAhIhhBBFoIBECCFEEc7PgJTxJBpK82CeKbY7xBx8Ufo6Dv99sthmOmU/Z9JkmM2vo2HlHLHdtvl/z+vi56ss8vV8Ev8Q22fSae178EzsKGF/N2sXYL5IIsQfXTIghQ/5BZf3FRuEEGUZ1As9xCohgVBkQHrgL1Zsy2XLk3WIE2nBw5x4NqNWSl/54P/w+hL2/AsHsfK2X0QOQogibF+Oq2PvRNDU5/C8SCLEH12jhdTTieeTbYjRNsjbDd3lxwt/Rd1RGgYjhJBzQdeozeMcuCqIr1yI/f+6BGMeGogxKTrMeluLtzZLOQghhHRxXSMguR8lWw8Wq/v/3R0lJ8VGu4Rh3qIncZgPwJay5bM87P37TLhNS5ANnog3lufi8GfN+azLkzFvsHg+UHpRnmu/bPnRnIsdiyYiXGR55nWeno13RosEQR5sfh07UkSCIKe75x+AWSkL8MVHrzXto+Gz13B45QI8M1ZkkTRPXJh8/1+w91M57xcZ4mlfXMfvdj2+eHJau8cNwifNxIcr8/Cjq7xPc/FZ2hi8sZJvuw+sN08ckd43Kb+YRNE0gWQAe24JrPycWj1nWYv98rLXLMCj4vlW3bAAVpb3x1dniARhsHx8fDB/lkiSDE7GXq/8k+/3fG9+/OhJfHh/tHjWWzSeedbz7zTwv7/maxc+PRk71sh/R52zb9+TYbzPuaEkDzseGSOeJaSrBKSdPXBQWvkF4WMPYv3fjiF9fCP6S2ntd9lNjyCXVVTbNm7Dyk/KYTnZC+HXTEbu39z+cQ5m/7j+kYRZ+iAcKy9j+bah+EsH+urHIDdvAWaLbH4byyqGfF5eL9RXl0vlrdy4G/vRByNuSMIOXmGwbC/vqmH/H4DISQOkl8nGYHxYL2lNf7V7ZSjSD9UgbzvfHoD5LzyON2ZGQ9/9MDZJ57cNH+89gR5h0Zj/N1bJe1fQwSPwjxtUKH4qDUExd+LqpSLdG78ez4nj3yuOf/th9B0zA+lXyccWEHY91mZMxmRWwe13Xd9KB/Q3GZEwUOTxFjYZS646iEV338mOdR7iVol0RjOWBZ8JfVH7hdc5p/8F890q0fDb/4Idf/XcL38falV9cZnI06pPPsfO78HKHeo5i2x6OPT8sf8gJLh/kJg+iL2nDdi1/X1pczILnu/cHo3wxoP4mO+X/e3t7z4Ik29/gH3QcH+/uSCE/z0Z869m/wy28Lxl2HQICGV/f88sYx8iRC6/9YrC2hQDQo/ulc95Ww2O9eL7Tob59s7bd3jKEvmcT9agWJzzrmNBCB1Ms5NIs64RkPb3xOIPNDj40wVs41eg94+YmnAQpiU/4jZXkyJgLPj02Y+H5zyKaUvy8aclz+HqJWUsMLB/PNF/aPqEO/+RaRjf9wQ2vbQIw/78IsuXj1vnpeHWTw6ziica93m1VNo2HP+4fxz0Kl7eo9DNeU4q70+PPY2r457DipoG9OUBcQo75Xf3w8Jeob/8D/JLuRvGYGT/E6j1rgxHGxDJonNtFasw+PbMOUgf3Qf1NZsxLe5RxD3Gzy8f0+ak4OqXduOYahBm353U1BqTsNfvzH8CD69n59UG+Xo0wLLuxebjf2gRdMkbpOMNjNv1yF+Eq13X98+PYlT+XtSrRDYvffsew8oFLyKvxQ57YcTlx7DojhSMeqj5nG/dyM6p73AsSBGfxgfPxLt3D0df50GseHRe036l9+HGRbhHztWGzdhUc4IF8Usw/gaRxDxzbRjw/Q+o9fogseTqQQALPtteZRuj5+CZGwahx4FtuHXqoua/vTmrsKkuCCMmsWAvv0wYgPEXl7u9jy8i7tZFePKrBvY3EIMl94tsfuqrD8ehV93+9vh79xj/u++F8TM7b9/po8NYC/owilOfwK3inEfd/Cim/r1M5CCkqwQk5stPgzFj0SXI+lSD/Q4emBhWMd073dnUhReo/f9ejucPiA1uy6fYyT4B4iL2yU1KmIHpkbzlsRtPvuVZUX+8fJ8cvC4P4HPi6D+wlgx73FuKe7zKA8pxzwd7cYy1lMZMmggc+Dd28mMbPAxL5AwYP3YQQk8exMp/s/aiW2UYPol/Av8BOzdvk7aX/GEY+rLtTW8ux8dSSrP9by1HMW98DRuOdDlJVvc/bFon1lvFWhSXs+vx/W48t7RcpAmWQrz9JaukAzH4Ooxp5Xrw4/zY/b1xd+ggnmvluf3b13q+p8zHrMLd1cg+2YezT+hsO/zOaIxgwW7XB8/hni1ynkA9//lB1LP3KnLscJEyA2Ok1tZmVNa5f5CYjOvCgoDqvXiZbY2fNhz6bg349/p8z/fmwMf4eA+7fv1ZEBBJMh95WcW+6H3WmuMtmMgA20g+/pax5UUU72WPrGXHW4zNOm7f3/zIJyT1xcg5Y9w+CB3GLov3vwNyPlNkQFK5juqnC3FUrEpOXoC1HwRj1qODsFb8HasG1mOavBqgE/imyvsfA2s9ONlDcF9EStt90LcnexhogNnV7+1a3pH/YfXt31q/kg9DerF/kqzSsn4uBbMWVh1m/9BZmSGXsv/vxoo97Ph6DsJ10o2mwzEvcgDqq3ezVsxBqYvPVRnedzn7BO4WUEKDWQV4kv1j9xlgDqPyex44+iL8FjlFcuwHFIvV1g3EQBb962trsEKknJaxA6TA7/t6HEY9CyK+HPuuxvf14+9p5W6x7u4H2PlYY98+SGAPCQP5u3AY32w9jcpwxW7sYmWGR1wnV7CsxTWi52Hs/PB9/Ju1dJs+SNwQiUh2zSx7PpGOeURfNft/EK6b7fX3xJZnruFdnux98bix+Bi+8f5UwX1yjD0T4N8fc+zQPrkV7eXQj/xvQo1Qj67cjtv3k29txi7WAtTfkIy9n+Zix5MzMFvq3ySkmWICUjCv+PnjsHoYQuR15/HukBr0Axvw0E0/I1zkAXu8SKzyoCWPL7VDKxWet/oDu+X+dl/L5iqRq+Nt2nKQBaheiLxmjNSaiGT//i1fvA9sL2NBxVUZTsYIll5fs+/07vlodLZSybdU/1OALaFTcXbgp+S23tOfGqSA71Lf7j8c7n1sk1qw4biPPcyPHoQe3x9E8XZg0ResYPFBInw0a9XyDwEeXaEnsGu9j78laSnFx9Uim6SB/f2JVV+cHflesH3xSNOkA/e9pRCj4hbhnnfLYfmxF0aMm4Z/vJrrY9yKnM8UEpB+RUraAWxbdhDrHziMcGmKdzfs2S0PIgRfV4c//uEQVj7N8xzCtqf/hzjp75jl+bwXSqRcneGE9Cm9R7cTWCH1e/tY8gOYd159QvpkGa671q3bws1MucVQe7BS3mYVFB88D40wYPKdw6BvrMGmXP4Eq7gqf5ArQ+kTePOAOVdbxz6h9xyAEVNEgocBiOzPPok3shbUuyLJb/L16DtwqFe3kkxzkfTG+U8Ej1Dd7+UVD8PRt5UxpNb1wsAIHxXc6KG4jPfrHj2Ileyh9gTvPmLXYTp/sv0e/ryG/QkOwpi75a7M2kr2vvAnclnrqVH+IHEfP56mySaufQexit7H35K0FOJ5kVfm3WIS7r5E+huqtfH+V//xVk3Lv73hGDOQ/00cg+UTkSTp2H0DrGX9/HO4+ua5GPU8H7fqg/F3zqGvFyJNFBKQGtG/16+s2SNqqF9U2PMvLeaLfxwGVs99z1pC0oSGi36WE0/2QNn6UNxf3Jmn8Cm28U+rA4fj0Y74JLedlcc/cQ6LwT9alBeNf9wkj/24xoJ44JEGzwcOwhLeLSfGIbiV//0fjnUbgPG3sk/grgFzYVFpjTS+Mf6OljOhwm+fg4Qw1jqo3t1Ulv8+lce1fFyP8EkPYNaVAQakdythOckCvn4M3vCa9Tfi/pmYHFhvlER/zUzM8hgHGYAld/OxIxa0P/9USln54V65++wGz5l3AVvNJ54EQT9mDPtQ4P6+ydcpNHwyxrPymyabMCs375fGX66blOznLLVeGBM3EyPEliwa79wwFD08/lb8FDYcz3jM3GTv3d0zpGvd8m+i4/Y9Qs8HC5vtencVtvHx2p5qtONtJueoC0JDQ1kt37r+/fvj697Xiq3O1f/SXzCQBZ4vbSLBh8v1v8BZcyH2n879R/yelSl9WWvDc8ow94+Vr2N22EGsiHlUnm3Fp2n/jc8Ea0CtZTc27Ze7KfoODMPIy4GP/yDySfd5jEPof1dhwJ9Fx7uv/fgqT9UHI0cPh561dPjstavdJwzM/AsOp7DWAlu1rEtjz7m6fmbgs0+n4TreijiwGcNmLXfrchuA+X9fIo9J1B3Epu01qHWyYw4fjvH6PuhxbDcevudpMfjP7xmZifHfb0YQK8OTj+eajucE9v93N7Z914AeF4dhfHRf1LIKRs8qYF/XtTXjH3kSH04bhB7OH1jA2A3e8JOOc4gD+48Ngv5it/fC1zV2ka71ABxjTdC+3Q/j4y01rDUahMuio3HdQNYiqdmMW9k5uF4lTb2e4rlf9BmAMZFB2OTXTDtuAPt7yWZ/L2y1jl3TOHZN5Scw/m/ZMI9jFT9rXXteD9/vDf8biIwMR6j1Q+gelI+S31v2zDVg59QLPU7uw8flh9kHjV4YOTaa/a2wdHYdRrHr4F9Xq3ztwo+xv7ff8Mkf5djJzrkHa+1Ojh7ArgO7zo+x6ywmeQSyb9d7eGzbKuge4sfe8u+G/7ua1ZO18P97UOolcO0XX32Iq+9+389zIF1NyDdmKYbU1dWJlLYpZgyJ+/7btoMRt8dymsEoUFuWY+rSj/Exn5I9LBqzbhgjLeMj1Kjdvs2PiQBeWHlXP/Y+iqvdypswHKEnalD8qlcw4lbtk1oRAGsFve4+DiHGMLqxQPXlWq9/0Ifx/J8XIWU1nwnIWlET5GOePCSIBZENSGkKRu2w6mmMyt6GXd+xT9bXGES5rC23Kh/LWVqgNj31KG59qxyWE70wgrU0eHlj+h1Dce5z2Bbw+9yAnW8VIK9KjfGTeFkGXNefBfltH3sEI+7jpc/hnlWe+511LQtQtftZu9Rfh7FSTIw5tqfCYwxPGv9j7w3q9uNjj+DM35unkPIJC0QY1PTezBo7DOHO/Sj+l/c0aHYtFryPj52DkMDz3cACAmud7PqkMIBg1Ky++kPc88FB9B0h7zfhqr4sWJfjebdg1Kzj9l255yDq+4ZhslQO22+kGvs3v49bKRgRN4pqIRHSbADeeCcbswa7t5Da0Earl3BttC47XFutbnI+CbSFRAGJdAreehpzcRtjSs4fsE36hopWDE7CjpUTMeJYOf409Tl5skBbOjAgnfaxn2EjxvIxLLHhS91BrNzyhzMYkOTgp9/7MYLupE8H5zMKSEQR5DEIfl9NK7zGXDw1j7PUblkO3cN+zGTswIB0esd+5snjnmLDlxreUsEZC0jh85dg7y1hXmOe5HxEAYl0KfOfzUV6uAOW/TX4hk8s4BM8oodB3z8I9d+VYdHNL/pX8VOX3Sl0bpfd/GefZHuowU6EYfLoQej7IwvaNyonaJOzo0tPaiDnn101/8Mxfs/UaHmwm0/wCL/oBHZt/hD3/NnPYETOutqT8vT3WWMGAd/txvNZFIxI4KiFRAghpFNQC4kQQkiXRAGJEEKIIlBAIoQQogh+jSF9NbVIbBFCCCH+Cf1/EwMaQ/I7IHXf/IxIIYQQQtr287iHAw5I1GVHCCFEESggEUIIUQQKSIQQQhSBAhIhhBBFoIBECCFEESggEUIIUQQKSIQQQhTh/AxI/KcKSvNgnim2OwT/ev/Xcfjvk8U20yn7OZP4L3++joaVc8R22/jvCHXu+fq4xn4bgGeWv4aGz3LxYZd9Pwg5t3XJgBQ+5Bdc3ldsEOKXAeirEquEEEVSZEB64C9WbMtly5N1iBNpwcOceDajVkpf+eD/8PoS9vwLB7Hytl9EDkLashv33DEXQb9LwTT6AT9CFKlrtJB6OvF8sg0x2gZ5u6G7/Hjhr6g7SsNghBByLugatXmcA1cF8ZULsf9fl2DMQwMxJkWHWW9r8dZmKQchhJAurmsEJPejZOvBYnX/v7uj5KTYaJcwzFv0JA6XvI6GUrZ8loe9f5+JFkPmgyfijeW5OPxZcz7r8mTMGyyeD5RelOfaL1t+NOdix6KJCBdZnnmdp2fjndEiQZAnDryOHSkiQZDT3fMPwKyUBfjio9ea9tHw2Ws4vHIBnhkrskiaJy5Mvv8v2PupnPeLDPG0L67jd7seXzw5DT3E04GQj/tJ/APReOZZz/eirWscPj0ZO9bI14IvP370JD68P1o861vzvpq5yvnR/b19dpp4lhByJnWNgLSzBw5KK78gfOxBrP/bMaSPb0R/Ka39LrvpEeSyynnbxm1Y+Uk5LCd7Ifyaycj9m1vFNphV2P9Iwix9EI6Vl7F821D8pQN99WOQm7cAs0U2v42dgy/yeXm9UF9dLpW3cuNu7EcfjLghCTv+PlkKSi/vqmH/H4DISQOkl8nGYHxYL2lNf/UM6VEm0g/VIG873x6A+S88jjdmRkPf/TA2See3DR/vPYEeYdGY/zdWKXsEJSZ4BP5xgwrFT6UhKOZOXL1UpHvj1+M5cfx7xfFvP4y+Y2Yg/Sr52AIXhPC/J2P+1eyt3sKPtQybDgGh7Bo/s4wFSpGrSa8orE0xIPToXnn/22pwrNcgTL49Gebb3a/XKUxZgM/SxmBEr2PYtF7s9wDbrzZEZCCEnEldIyDt74nFH2hw8KcL2MavQO8fMTXhIExLfsRtriZFwFjw6bMfD895FNOW5ONPS57D1UvKWGBgn5qj/4BZcibMf2Qaxvc9gU0vLcKwP7/I8uXj1nlpuPWTw0D/aNzn1VJp23D84/5x0Kt4eY9CN+c5qbw/PfY0ro57DitqGtCXB8Qp7JTf3Q8Le4X+8j/IL+VuGIOR/U+g9nuwwDIU80UyRhsQyaJzbRWrUPn2zDlIH90H9TWbMS3uUcQ9xs8vH9PmpODql3bjmGoQZt+d1NQak7DX78x/Ag+vZ+fVBvl6NMCy7sXm439oEXTJG6TjbZ8BGH9xuduxvoi4Wxfhya8a2HmOwxKva9xXH45Dr7pdP77/x/h71wvjb5nZ9N6dyrxJwxAK9l687vobYPudNQ+j/vapyEEIOZO6RkBivvw0GDMWXYKsTzXY7+CBiel7DPdOdzZ14QVq/7+X43n2ibjJlk+xk30yx0VBrKLiZmB6JG957MaTb3lW1B8v3ycHr8sDuCdm9B9YS4Y97i3FPV7lAeW454O9OMZaSmMmTQQO/Bs7+bENHoYlcgaMHzsIoScPYuW/WXsx+BKMv0FOD580iAWXH7Bz8zZpe8kfhqEv29705nJ8LKU02//WchTzxtew4UiXk2R1/8OmdWK9VZMx+XJ2Pb7fjeeWlos0wVKIt788ITYC1YB/r8/3OtbDWPT+btSytRbX2Mf7gS0vongve7w4DJP97Eq1/OBg/++FkWOmYYScJNll4ReIEHKmKTIgqVxH9dOFOCpWJScvwNoPgjHr0UFYK+oj1cB6tK/H/wS+qfIOCqz14GQPwX0RKW33Qd+e7GGgAWYxVtG0vDNGamH07T9QyumXIb1YoGBBwfq5FMxaWHVYqoD7hlzK/r8bK/aw4+s5CNdJN3IOx7zIAaiv3s1aMQelLr7IscP5E7jv8kEeASU0OIhdq8PY5TPAHEbl9zxw9EX4LXKK5NgPKBarrRuIgSz619fWYIVI6RjH8I135OQ+OcaeaXmNjx3aJ7cEvRz6kZ+XGqHe3ZGt2PTqp/j4EG+VzsAOPg729zmYf00AXX6EkA6lmIAUzCt+/jisHgbRhe883h1lfGVgAx666WeEizxgjxeJVR605PGldmgUj6dQf2C3PFbha9lcJXJ1vE1bDrIA1QuR14xhLaXrEMnqZcsX7wPby1hQYS2HiOtYUJyMESy9vmYfnheva5dGp+8g6UP9T+1tCbWmgV1jseqLM5D9sbJ4FPPHgY8xbcajiHtpG/79HaC/Zhye+fuT+CKj7ckRhJDOoZCA9CtS0g5g27KDWP/AYYRLU7y7Yc9u+db64Ovq8Mc/HMLKp3meQ9j29P8QJ32QZXk+74USKVdnOIF6FrR6dDuBFdIYg48lP4B559UnpE/84bprPcdvXGYOkLoKaw9Wytss4O1kgSc0woDJdw6DvrEGm3L5EywQVv7AglQ47rshEpHBDdi1nQUqobaugQXtARgxRSR4GIDI/r1YAGItqHdFkt/k69F34FCMFynuNBdJb1w7sNaar6/zufsS6TrV2jy70HiLqeX1G44xA/l5HYPlE5Hkl8PY9FY+fjdjHoYt/hi76oKgnzIT/2jvDEpCSLspJCA1on+vX1mzRzRZflFhz7+0mC8qFgOr575nLSFpQsNFP8uJJ3ugbH0o7i/uzFP4FNuq2cPA4Xg0kNlbrdnOyuMtgWEx+EeL8qLxj5vksR/XWBAPPJtqWOtg4CAs4d1y1Xvxsnhm5X//h2PdBmD8rYMQ2ngQ214VTzCLSmtQjz4Yf0fLGWrht89BQhhr5VTvbirLf5/K41o+rkf4pAcw68r2BqReGBM302Mch1+Pd24Yih4e10MIG45nPGYfsv3fPQOTeUsxgPMK14d5BLb961fh7T2i2+8qOY0Q0l6svg6QQgJSdzz0qA7x2Zfg7qU6jHlQizvf64Y68WzJOxrEL7xEuhn2zpcvway/sDx/GYAH1l7YlKdzHEbKq5thcfbC+PufhHX5AryxKFlaPsxj25963tNyarvxp1wf5f3tL/jCvACzWaCwrCvANLexn+e37GetqkEYMYw9t+eT5m61VfukaeojhrGK+cB+z0p4RT4W/ZdP8R6HD81Pwvw3cczLc/HF/cPR99huLMpY5XcXXbPDuOeD3ex4+PEvwd6/PyCV+87fn8SORcNRf6C9XXms5RU6GZ+9/zjeka7vAul6JLAAc+y/HyPFayys/pgakxctwRfPyuf1Tl42vpjNgpfzIFa+6jqvyTB/9DoaSth75HUvl0vCnx/B3o+ar88bzz6J9Gg+iWUv8gJqZRFCOoJCApLs+28vxJc2sdGKPZYLsf+0boYN0JblmLr0Y3zMp2QPi8asG8ZIy/gINWq3b/NjIoAXVt7Vj72P4mq38iYMR+iJGhS/+iKu9p69JgUevsJaQa+7T8J4X25tdWOB6su1XsHlMJ7/8yKkrOYzAVkraoJ8zJOHBGH/fzcg5Z6nPWcXBmLV0xiVvQ27vmMtjGsMolzWlluVj+UsrX2OoXjB+/jYOQgJ0vWNhp61jHZ9UohRf/64ReCsr/6QBcaD6DtCPq+Eq/qivqYczz/2KO7ZIjL5Ydeeg6jt3nx9Zl3bF8e+ZNcn9cUWsxMJIZ3vgtDQ0DbbVf3798dXU4vQffMzIoWQjsO/PeGZa45hRQwLJiKts5zJfZGuJvDuJdK2n3+/EKGvx0kxpK7Ov74sRbWQyLnD1XpqdWGtQp8TOzqRPJmjQZpYQogchMTitkpLRy38f/xBfvQHtZBIp5BbIywAtKZuNx6Oexo4U62WwUnYsXIiRhzYjGGzlrdj/IycG9yqu1PWk/5XpKSln3+fhtA3bkC/fv38biFRQCJnVad2o81cgC/igZ17gJFjo6EPPoFNufMQR7+HdJ4SVZ3PGs+P4BPAJ33CA9JD0L4xmbrsCJEc49+FxyeO8EkS8v1GFIzORzyQsEU8NHMl8Of8WEhgxDWjLjtCCJGI6s2jlnPb8KgsfVSFPpJ88zvjeePnsQ9C+9a0gLrsqIVECDlHiSDhEStcaeyxKRiJ9RbLL+w5tvDHUy6+Xn+eL7/8wh5+lRZ/UUAihJyDRCXYVBfyFba4KssW295BxW3blZeWwJZfxbfqBMDvLjtCCFE2t6pMCiSuR145uj1KCws4Tdvu62xxlSOtSytu6yQQF7+TCI1GA4eD/9TLqfkVkL7//nuxRQghXUtrXUY8feDAgVKFGRTU3u9hJB2JAhIh5JzmKyDxtKFDh+Lnn3/GsWPH4HTyH0IjZxuNIRFCzlmtBSPeMuLB6LvvvqNgpCAUkAgh56TWghHHu+l4y4goCwUkQsh5wT1A8TEjahkpDwUkQgghikABiRByzvHurnPf9tWVR5SBAhIhhBBFoIBECDmnUeuo6zg/A9LcHJhMRcicILY7hBE5JhOKFsWKbaZT9nMmxSLzbRNMuUax3bbYRUVd/HzJuYCCTtel2IA0YemH2LBpo99L/n3ihYQQQrokxQYk+7dfYd/Xe/1evv2feCEhvtyYhrzCAqRT6+285Wo5nc8tqOjoaLzxxhv4y1/+IlKURbEBaecrjyI5+V6/l6wPxAsJ8WWQDjpNMFRik5D2+NOf/oT33nvP58Kfa8uyZcuQl5cHnU4nUpSPHys/Zn7sp8KDnK/z4+ne14qXN2XKFKxcudLjuik2IAVfOhwjDSN9LMNxabDIRAghZ1hDQwNWrFiBP/7xj00L3548ebLU+uCtEF9KSkqgVqsRFRUlUpTParVi27Zt0Gq1rZ5Xa1zBLDw8HPPnz/e4Vvym5HXr1uHAgQO4+uqrxSsUHJBG3/sUi6LP+liewr0xItNp0yD2vhwUrjbBZGLLB0XIW5QAvXi2iToGyc8UoOiD5nwFzyQjRi2eD1RIrFyea79sWf12AbLZibmKTMxezdILkBImEgR54sBqZM8UCUJcJk93z69G9C3pyCvk5biOezUKX0pHgscJNk9c0M/IRF6RnDdnrnjaF9fxN12PQuQ9GA9/PifIx58DtjckPJLnce1bXlPXRJE4xNzL3idpf26TJtTRSORlvCfK4Mt77FgecX8P5TJMN0ewdTUMC0S+tzPZmQt+lUO6ojPVPccr14cfflj6mYXk5GSfraCKigrp+dhYt4lPXUB5ebn0eMMNN0iP/ho/fjz69u0r/Xvigc2FX6uMjAxp/YsvvsDgwYOl1hKn2IC0b8safLDa97Jlr8h0mrQ35yJtLLvg/2QV0NoSVNWroRttxMIH3KohdRwy89MRPzwYRz83s3wmmCvqoBkej/TcNBhENr/pWQWZn8bK08C5r0Qqz7ShDDZooZ+ajnxW+fI62bSrGk6WFjHJvYaOhiGMb6swJCpBTpJEI0rH0g+Vo7iGb6sRl5GPpXfGQNfNhrIN/PxMKPnaAXVYDIxZLCB417S9Y7BwahBKliYiPj4eqa+JdG/8ejwvjv9rcfxbbAgem4w5I/z9Cn8VdIsyYGQfFKv+xY/NjLID7P1g1zTtSR6qvIQlInVkFQqM8ezYEpG5kaWx40h/aSmSxuqgspXBzI+DvYeWOvYejjUiiwdY6cXlKOHPVdjZuhPWLfK1MP2zFFX8ab/LIaRtrtYEr4R9tYJOp7VxNvGA9NVXX0ktnUC6G/kX2PLWJG8FtWbTpk3SdwpeddVV0rZiA9K3Hy/Hiy/m+liW4+NvRKbTwiocTRVy705F9iv5yH8lG6mLzSwwsIpxRDyr4mWxDxlh0DhQ9sIczFuSy/LlI/dxI9LXWuHUxmCmV0ulbToY75uCiB52Vl4Skh7OlsrLfyET825LQ3G1E5rRSUgdDTiKK8E/U+j08fJLuZGTEKl1wGZzQhUe3fwJP2wcSwdsezZLr8GEhTCOYQGjuhhpt81D5gv8/PKR/TDb5wtlsKsiMGVukhT4moSoUPVyBooq2v4hLfl6OFG1Jr35+JelISm5CNV+j9DoEKXd6nZsuci8fw4K2L5VQ6Zgrtc1VWvsMD2Ui5IjIoHhxxETwo8jDYn3ZyJXvIdpdyUhd7tdLucOfoZlKObPVR9l6w2wbZevRf7rZula+V8OIafGK29eCbsqWNeYk2ucxNXaaCsgeY+5eHcD8nWe5p6ntUkKfKzGPV9rrTPXeI4rn/dY0JdffhlwdyN/Df/OwLZaVjxI79+/vynYKTYgXTp5Dh54IMXv5ZbfihcGwLplGczu9a+lGOWH2GPPYGikhARMiuItj60o2OBZUVveLGfBi33SvzyA5ndYAmKGqOC0mLHMqzxWIgrWsCY923PkpBgWkcyoZB8sVOFR7ChkurGR0Nbvg2kbq0p762AYKaerJ0WwtpQdVZvlP/aEiVEs2LCg92YBK9WTY8MylFSzcvUGeNT7x6tQtl2styoOsXp2PY6UofA1r5KPFLKWo3+/CslbKpXr872OzYHid3fI11QfJ9KEQ/uw2qNo8b74Og5WjvlZ1tpl5eivPdWnhY4qhxDZ0aNHpW65kJAQkeLJ1doYM2aMz9YGDyAjRozwGKPau7e5S4gHtscff1wqw31Mhr/GfeIBL5sHleDg4KbxmyeeeALXXnstevXqJXLJeJmzZ8/Gxx9/LOXj+bn09PSmY+TdbDabrdWA5gt/za5duzBq1Kg2x9Y++eQTKdjxLj7FBqShY2/GTdP9X/5wrXih31hLo8q7ArXCcZI99NaAjzgA/RDcgz0MjEOea2zBtRTFs8/5LBiEyDn9EsHKYw/2mhK2dx82WlHLHjQhkez/Vqz7irXXegxFtDRmokNClBbOPewT//oqVnFrETlW/mOJ17NHFlBKRUDpF8xaKvXfotJngHGg6gjfez9ox8opEnsttorV1umg6c3CycFK1u5oycl/CdovNljXi1V3O+2oYw/qfp7/UB2Hq72ul/y+tHYccFTBfpw9hmjR9nBjR5VDiG+8IuaVPH90aa21wQMDH0958803pcrchQcSHsh4cOCBbMeOHXj66afFs3LFz4OJ+1gMr9z5PvLz85vGb3gZRUVFUgvOxVXmN99803SMPD+v43jXIy/HhY/3BNrdyI+TB0zeUuKB1Fdg4sfFgx2f3KDYgLT9lUewcOFDfi/Z74oXBsLPCtRZUyqPO/haNsqtks5g3VLJqm41dNeyN1Adh4iBTlRXFAM1m1HJYpV2GB9vikPkINbq2l+OEvG6dmls8B0kfWhw+puzNU40tFGE08nDkptf6GcCyLnDNbnB1a3nwitkPp7Cn/eFBzAeZHhA88YrdfeuQl4Wr+R5ujs+nuMekFxl8hmA7lz5+DiQi6usQAISxwPmrFmzmgLTI4880hQ4XVzBTrEBqe7b3dhZttPvZd9h8cIOVccqX0ClqsM6aWzBx7LG52dr36qOSi0ATVis5/iNywQdQtmD7aAoc+d6OfBcPg76WVGIcFZjxyr+RDnWW9gTgyMRPzIKut5O1hpigUo4WscOuseliBwtEjyoERHC9u60oWqLSPKbfD3Ul+il1qE3TQ9/JzWEQufrBtWbh0jl2m3e3Wfe2HWsZ+/LoEjfk0rUEXJLzsZajSLJt44qhxBZv379pAqeV7CtcU1uuPLKK5sqd95S4d1rdXV1TS0ab/3795cq9FNxleUPXibvwuNddu5jTbw14921xwNSW92Np8IDE5+JyIMunzjlXgaf3MCDtGID0sh7n2TNzVfaXNJvEpk7jQnl1awGHng9jBN9hpDA1BRjBx8X0sdhYYvy9DDezMd+bKgUY0E88JTVsKbEwAjM1evgrC5nRySe+dwKh0qHqFsioWWBqmKNeIIpZi0rPhZluKPlDDH1xIWIHcIq2eodTWX5zySNa/m6HuqoFMRH+TupQY3IiQlinM5Fj5Qp0VB5nH9rirGtkl2XEAOS5rY4Q8Q9FIsI1gqrLvM+QzX7MCBWJe0thxDfXAHGu2Xizbu1wYMQD0Zt+f777z1aN63xpywXXuaJEyc8xqzcF/euQa6tyQ2tjZu5cwVj75mIPJ1PblBsQNJceiWGXjGszeXSS0TmTuNA4WvrUOVUw/BgIQqfSUPyvcnSkvZEHgqK+P00gbAi/4ViVh4LFu7lPZiJvLezkcACRdWaZch2G/spkYJLBPR6FayW1c3dahvLsa+eVex6Vq0fqPQMLh9loUCaIZaA7LfzkPmgOOZn2D4fNEBjL0P+4iK/u+iaOVCwphR2VlkbHlyOvEUpUrkpi/Kw/IlRqOPB092EdBSaTFj9vNGrReWAU2dEwatLkSJdzzTksPOPG8haR9uLkHfKyRUsND5VgDK7ChE3Z6PopcymcrL/XyFSRmtYOflYvMrteKrt0vlGTMiW8qY/kSbNUgy4HEJawbuh+M2xvBXhT0ByjZu4HDlypM0xGtf0ae+uPo6/hreeXN15rZXFt91bPm2V6Utr3Y2uVhkPKq218NzxwOo9HZwfu2ID0saMaZg4fkKbS/LLInNnshQgPbMQpayyVV8Ri/ip8dISE6GCfdt6PyYCeGHlpabnw7zXrbyJBvQ7aYH55XSkes/2kgIPX6lCxUr3irEYFfudUKlUqKpY5RVcHDAvSUbWu+UsBGphmCgfc+xQwMYq/KzkTM/ZhYHYmIXkpSbwHkPd6Di53GHsH9gbS1HM0vxTi5L5+ShxXoo46Xqylkg3GyxrWdlLzF7n0gqHGZnJWSjayf74BxqayhnC77t610c5G5ehYDNrVfbWS3ljBjhZYGUCLYcQH/i0a97txWeVubcqvKd9u+PjNjxouMZT3n77bamyf+ihhzwCCe8+49s8iG3YsEGateY+zdsVCPm+XZMh+Mw1zv0mXV7GxIkTpXUXXiYPoLxM92Pkr1m0aFGLrjlXC8e9u5Fz3QTrPr7Fj9F7OnpbQZsf+wWhoaFt3srM+xh5s46QjsC/qSFtdC2K41NRINII6Uju387ga50/jhw50mM6tb94pT1t2jSx1ezw4cPIyspq0Tpw5f/www89ZtpxvLLnU6t5q8I9iPHp25dddpnYgjQDbuHChWJLrtTvuOMOj/EkX+XzgMGDm6tFxLvmVq1ahZkzZ0oBwTtwep+XrzI5V7n/+c9/pJbSgAEDpBaP9+xAHox4oPPWWrkcBSRyRlFAIp2tMwNSR+OVNr8p1FcwUzLXPU/ugbIjKLbLjhBCznXuN4V2Jd7djR2FWkjkjKIWEulsXamFRDxRC4kQQogiUAuJEHJOoRZS10UtJEIIIYpAAYkQQogiUEAihBCiCBSQCCGEKAIFJEIIIYpAAYkQQogiUEAihBCiCBSQCCGEKAIFJEIIIYpAAYkQQogiUEAihBCiCBSQCCHkPMV/PmLlypU+f9H2TOG/rZSXlyf9YOF5GZAMCwpgMq1GzmzPn+ftCMZcEys7B0ax3blikfk221/umdlbm+bmsPMuQuYEsU0I6RS8Anf9QN7p4r/weuDAAVx99dUipfPxHyV0BSCO/7YS/02oqKgoZQek61UXiDXuAtyh6YZBYut0BKtUYo0QQs5vX3zxBQYPHtzhP7bnr4qKCjgcDsTGxio3IN0wpDeeua75N+OBXxE+IgTLI08/KJU8lYT4+OlIXdF1fjK4Y8QjLb8QBY/Eim1CyPlu06ZNOHbsGK666iqRcmbxn27ftm2b9Au0ivw9pDsiNZh3XS+o9h/GqE1OkQo8Nv4S3BT+K37cZcO8nY34WqQrCe+ySxhSdYZ+EZV32aXBcKQY8Sn+7M2IHFMCQrdnI3FJiUjrILzL7uZQlD2XiMyNIo2Qs6Azfw+JdzeFh4dj48aNmD59OoKC5A/NH374oVSxp6enY8CAAVLa4cOHkZWVJVW4LnysZtq0aWJLxl/7xhtviC0gOjoaDz30EHr16iVS5Dyc92tPnDiBZ599FuXl5dI2P75Ro0ZJ69yOHTvw9NNPiy25u4/jrSJeluv1N9xwg3Re3sfLuc6ZjzXNnTu36bi++eYbLFy4UFp38T529+PjLbA77rij6ZpxDQ0NePPNN6VuQ/46xbWQ5ozoh1QejE7+iE/+3RyMuL9t/Q5fHwd+M0KLvOuDcL1IJ4SQM4UHnAkTJuDhhx/GH//4R6linjx5MpYuXSp90udpTzzxhDQukpKSIl4FacyEj9Xw53gevvCAwV/r6i5zVehfffVVUx5XMOJBi2/z/fGFr/MA5wpGPNhceeWVTeWvWLECI0aMkAKKO94SueKKKzxe/8knn0jHO378eJHLEz9nHox4cHGVzbv53Mvm5/DII494HLvNZpPOh58XH6+aNWuWdM48WM+fP1/a5un8GPjrFBSQLkDq6P6YN7IncOQY3lx9HI+fFE+5OBtwxxobdhz5Fb+5fACe+f1FuKE9Z+BjAD52UZE8GUEdjcRFeSj6gE9OYMvqQmTfGQ21yOeijkpE+kuFWO3KV1SApSyfeydjMzVi7s1GQZHIy5aigmwkj3GVakBaAU8vQIpeJEl0MD6/WkpPGy2SWsGPJzOfn4Nc/urCHLfyXZMtEhDB1tWj00Q+1zXgLSd2TItioZ+RiTzXcX7QfO6e6UXIW5QAj0Ml5DzBP9XzfweulgQflOd45etq6bgqWF7588qY4/l5i8IVQDgeCHh5vCeK45U89+WXX0qPHC/TvQXlCw8G/LUbNmxoKp9X9Lt27ZKClOsYXN555x2xJuOv4cff2uQGfoxFRUUeZfNWDW85uSYn8DEg3vX39ttvS9scb/1wvAV2KvycFRKQLsBjYwfgjit7wGn9Hs+scyDHs3HUrLER962z4ZOqn6GKCMHjY1VobqCermBEPbkYibqj2PoRq3g3sDcJGuhvSUf6jSILpzciKzMJMYNVsH1uhmmtCeavnBg6fTHi5L8nN2rELcpH+lQ9go+Uwczy8nLr+ugRn5ErAk0Zst8qhR1axM5NbAp+6puTETeM7WNzHrK3i0RfekYha1EidIe3ysey0wZoIhD/YDoSRGHlG9l+15azfbC4XlMq5eNLaZX8vESbgIxbdTi6TZx7g3zuC+/NRMafIuEs468xo/xIEHSjjewfl0G8kJDzB690+UC8C6+YeYV95MgRkdI2Hjx499d7772Hxx9/XOreGjhwoPQcL4tLTExsEUTawsd/+HHxbkN3hw4dkrrIXIGO4xMIjh49Kraa8W489wDqzvucOX6+vFXVr18/6TX8tbyF6N7lx/fD9xcSEiJSWsfLV0hAuhCDLmZtC7sdL2yox7u/iOTW/PILHv/X99h6uBGqkO64QiSfPi1rk6xD+t0ZyH0lH/kvZCDljXI4WIiInJAo8rBWy31TEKGyo+zFOZi3JBf5LG/uknmYs6wMdu8JfBMWwjhaA0dZLubcn9lUrvEx9gnLqUXMraLcjTko3G6HSj8dC6VWSywW3spaJ7YS5LFy2zSQfUL5JB3Gx8WxPJ6CwgoHi2iRuH6qnKVsDdvvK9Xgf4YNtlIpX/4rhTDXyM9z6rBg7FhsRMYL4hhfLpPO3TA1CkfXLkbqMv6aXGSkFMPCPjBo9bHw/58MIec3Xmnzlg4fR+EtB96lxbvX+DiLC2+BZGRkSJU4D1Y8aPlzjxCv8Hm32vPPPy+9xrV4jzlxdXV1LcaJOB7M+H79ac144wGPBz6+P/f98+NxjamdCj8mhQSkX3Dwuwb2qV6DByf2wC2nOqoLL8QTv++P6wd0g/PIzx04ucGBig8LYBFbnGNNBQscgKqnRm65qKfAMEQFp8WMZRtYpe/GsSUHO9wqeC5hYhR7nQ1bV5hZ6W4shSg/xModFMlCD+eA+dlClB1nAWBWCuIXJsHQ24aSV7JZ++kUjldg3WseR43i7fvghApBwSLJHzU7UOBezMZy7Ktnj/WVKHEv37Ea+9ixQxNK3XaE+IkHIl7h87En3uXVGl4xz5s3TwpYfLyFV/Le40DeeGvFNS7jGr9xLa5xmlPh+92/f79HN5y/XK1EPt7lvX++eE9+aI1CAtKv+NuWw3jzq3qodP3x8BQ1Ulu7VahbN7w8RYsbIrrDWXUET2xxYod46vTVwrpBrDaxoY5XyqzylboGfxuKfuzBXlPiGWAkDjQ0ilWhXzA/ES3iXjKJcRvXUoT4MPZUb400riNxsCD3DmuRDYxD8jjtqbvqXOy12CpWmxxvAAvxCB3k/xRvh83idU52NPCuU2eD1NXXTJynKgiBxDtCiCfeanKfTeeNz5DjExhO1eXFu+b69u0r3Vx6Ovg4jusm1UC4uuZO9wZbhQQk7lfkbP8eeTtPsvZnX9wxvTee6CmecmEV4Js3azEq5AL8uOcwHv7XT/jkVN17ncTpbNkH26p6K0rFmE3LpQTNQ5ysqj/uYC0bzgnn8Tpp7ZQaG3wER0KIkvBWjHvQ4MFo4sSJ0roLH19KTU0VW3IePjbjPj7F173Helz3EnmPPXmXdyq8JcUnN/AJCoHgrSs+fnTZZZe1aM3xrkf3Y2oreCooIMmW7zqKnH+fgLPnb3DDdZ7NpMeuvxhX9IZ8H9LWhpatgjPBXgceJrRhcfK2Bx3UXkG0zsnCSw8V6j7h4y++luLmLjl1HDJnx0BjK4XZwkr7v1QkU58YIecE3trhXVuzZ8+Wxlf4dOhVq1Z5jCFx1113XdMYDK/M+Ww993uJ+Mw8jj/Hx6R4Ze/q5uPBxDX2xBceoFyzAP3V1uSGtvBjcU01d+2fL05WB7rPLHQFT34d+OQOHjRdFHljLMe/qeHxwfW4/l9ye4F7bLwWY2uPYE5lIw6KtHbxcRMnn/adNrrWxw2t4uZTPhPutkyUuLZ7WGFKn4d8t6EVzYylyJ/Np0k33xirviMbhTP1aOCTGjK9xpE8yLPxUkYDpc8lIetgMvKy4qE9ZEL6/fke41rN2rgxdkImihYYAI+bYOUbYyP2svzz3fO3dsOs97k3a3EDMN0YSxSiM2+MPR/wQMSDJZ9Cfqrp5h1NcS0kl0+qj+Phf/NREJcLsH9XBwSj01aCgvVVcKp0iM8qRPbCZCTfm4y0ZwpRMCsYtXyw343jzdewrtoJtSEFhf8vG2ksL8+fvHAp8gqKkDNXzqee6JqNV4gcXqFb8pGzyQYVa4ml3iuaSRPSUWgyYfXzRtYWa48q2I+zh2GxyH6QHUPGUqTRl6ESQtzw1gxvlY0ZMybgyQ2nS7EBidvqdG+8/Yo37Wc7GMmsK1KRvqIUVoca+nHxiJ8aj1H9bTA/m44K75t5Wdum4NG/onCLFY7eesSyvDx//G+HQvX9VqzfwrKoE5B+twFqRzlWLWtuRVleLESpXdWBXXclWLa8hB23BvqJ7BhG94PTc7YCIYRIXYS8C5B3BZ5Jiu2yI4SQ9nDvpuPcu+pcj9Rlp0yKbiERQgg5f1BAIoQQoggUkAgh54ULLpB/8NP1SJSHAhIh5LzDv+ZGRb8crTgUkAgh5xR/WkD8q274twUQZaGARAg5p7kHKNc6//qa7t274+KLL6aWkoLQtG9CyDmntanfnPs6/x0i/ns+7j+rTc4eCkiEkHOSP0GptUDlra3nSNv69OmDkydbfGOAT9RlRwg5b/EuPFc3nmvdte3O/TlaAl/8RQGJEHJecK8YvStJX9veC2kfX9ey1YW67Agh5ypfXW3eaf7kIe3HZzN6/8RGayggEULOaf4GHApCnSOQgERddoSQ8w7vHvLm3nVEOk4g15NaSISQc15brR9qGXUujUYDh6P1nyZ1Ry0kQsg5r61P6dQq6lyu6+vPQgGJEHJecFV6rXGvGN0XcuYorstOM+wiTBofhH74GWX/qEeZSJd1R8I9PaBFI6o2ncR6+n0tQkg7UDfdmcO/CaOurk5stU1RLSTd7FC89twQJE3VYcrUvogS6c0uQqz0XDhSnhuGnNld7dNLLDLfNsGUaxTbXYNhQQFMptXsep/Z39cnpLNQC+jMcr/ebS0KCkjdkDhWA+lrDu2HUfi0DcVSujsHcv7+LSx2/ummO4aM/Y2PoEU6WjB9+SQ5h3lXiqRjBXJNFRSQLoS6h7xm+9yOd7b8Cru86aH6nw7kbv9R3ujRDRp5jXSikqeSEB8/HakrrCKFkHOXd4Ci5fSWQChyUkNw77YPS9dbfDNvI9AgrxFCCFEoX4HK16KggNQAm2gSBfVo+7C06u7yit2JUnmNEEKIAvFA4y9FzbKbkxOJhCFsZe+3mLqg9Rup5jynR8IwdpLVLF+qfzdceZibA9PNoSh7bg7Mw/4K4wQ9C3IsvdEJ+4EyrH4xC8UWOaskJBbJDydh/FAt1GI4xcHyrXoh0zMfo45KROq98TAM1kDVTU5z2EpRaMyCSZrUkAbDkWLEpxTIT0KNuEX5SBmtgcNShMVphbCwtOhbUpE8zQCdRuzQaUfVP/OQ/kopPM7YdWxXsGPj+2u0w7qpCOt6JyF5NNg5JiJzo5yV089IR+rNzeU67VaUrclB1vteJ+Ku6Xq5laWOQfJio+c1aTpPQR2NxAeSEW/QQSO6Y1HPjq9sNXKeKmbn6WJEjikBoduzkbxZj8y5cYgQx+c4wMp8jJV5RNokhHQxPIZ0rVl2YUFISh2AWB6M8Cuse9v+3qP1e8UY0pABWJaqxqQweTNQQWOzkDZJC3uZCaa1JpR87YA6LAbGjEzE8QAlGBelIf6KYBzdZZbymXfaEDTYwPKlsxDTTD0xE/lZSYgZrILtczmvaUMZjqr6QSvyeFIj5gFWCbNg5NxbLIIRM2Eh0u+MgbaxGiW8jLUlqGrQIGJqGrLcZ7qp45D5PDu24ez1X5fI+9tiQ/DYZMwZ0fIHx/QssGTN9izX2k2HmNlZyJ7pdsKnZEBabrp0TWq3ydfOvN0KZ4i2+TzZsaW/tBRJY3VQ2cpgFvuz1KmhG2tEVq4RepG1iTYBuQvGAxXytSvZy96PwSzw/S0ZNL+PkHNft+Dg4Eyx7lOvXr38/nGldrumD9Jvvxi98TNs/6rBIzk/o1485cvxsh9xZHAPjAxTQztEhW6WY9i8Xzzpj2sm4za9FqG/qcZLc1KRV1KGss/LULq+GOX9/4C4qy5H+MVf4cNSm5z9mitRmjsP2e//R8r3n02fwnnVTbgmfABU372HkmqWSZ2IJ5+cDF1jFYofNeIJkbfs3yVYV2zGTqmkcMTOiMGgExa8/fFOFiCy8Xh8OGvpFSP9wYLmFsNlBow8/jYWpBdgMy/j81J88mUI/hB3OXQsbnzwUZk0dhb7aBb+OBSoWpOOe57+UN5fqRnFFT0R84er0K9bAw5uY8f3DcscZsTjD8SgzwET0u/Jwoeucj85gsv/LwZRlw7AVx+WQj5jL9L1Cm4ua+xdmHeDDr/8Nx/GrCL5mmxeh+IN/8H+E/XSe8ePLXEYP7a/wPi39/AfsT/zGhOODJ2ImKuuxKUXskBWwc/kGky+LRLavhfgq9y78cib26QyS//5JULGs9bSJX0QXPkhSmv5wRBCuhIeQ5xOp9hqmzJaSNV1WPcvOxzoDu3vL0X6TJHeCvVMLZJ//xuocBIVbx3A8u3iiQDZthXA7NXjZ3nRDAu7dtrwMaz9IitYmuHVNedAcTWfcaaGhsUTTj0rBnqVE5bV6Shoo/fLRT9jKTJujmDnbsJfH3ULRtzGbGS86NU1Z6mA9Th71IRilJQQi1g9O8IjZSh8zWuHlgKsq/A8Md20GESw46tcn++5L4cZpXtYXq2OtXv8ZD0K3gBXR8QgPkROkhyxi5mRCZgU1cqxsbMyP8tafOzd01/r9UbXbMWyDe7HbcHmPTxEBiO4v5xCCDl3KSMg1TSgcFktiqRPy90xxNBTTm/FFEMf+X6l6sPIWPUzrF5BxT8OWCt9TWO2oY5/xG+q+Bm1DnEz07D0+RzkFa7G6vdWw8SDiZtRg0LZ/+349jM/DiYkFhmzo6G2lSL/0XyU+3iJxpCA5EXZyHmpAEVsf6s/SIOht3hSEgEN23YerPT6NguZ8xexIkRogtn/VYiea4LJ5LmkGHjoDYVugpT11GoKUbzZBqfGgOT/Z0LhS5kwTtQ1BXCgH4J7tH5scFTBzoNriBYxcorEYbN4BmGm3C6FvqbATwg5dylolp3/Gn4StW23C9wqwXbwqrQ9nKyTP+3rjch5PQ8pd8RiaG8VnIcqULLejOIyX51bTjj9GXx32GBjNa9KE4GoMd5noEZcRiEKM42IH6GFylmHff8xw/wRa1XwStxLgzOQaGyH5SM+luN7Ka0S2U6JtXKWGZGUnAvTThbUBxuQ8GAeCp/3MS5ECCF+UlRA0gTLA/ENP/wsPbbmaL14XhPkfzdTC+xT9xAf4SwsCjre8rBbUc42Y2+NQ0QPB8peSESicR5SH85E7iv5WHXIs0/UzgIYoMXQqfJ2m05WIm1xMapY/tj7spDMu7dc1DMxZYwGzhoT0qYnYd78VGQsy0f+KxU+bxRWX6L3OeCv6eE5qUE+PjV+OsjL8rUUwlwj5/WX44AZ+Y/PQ9JtGSiscEA1LAHz5vJzOSq1MlWDIn2/P2rRurNV0bR9QkgTBQWk7tCKr12oO95W0wWotnfM7bARvzUi2iMmqZFw7/UsTDhRXSZPXo7QyBVs7Tb3logeRoNnGChfWw4bHxeZ4jlDr1WWAqS/XAp7twjEZ2bB6GpajNSiH3toOFztMdajvnkcIj267MyoPMAeBl4P40TPHaqjUhAfJeZiC+Wbq1hAUyFyUvLpt2LUGkiXxcVRjqKNlVJ3W7BmKPt/MbZVsq0QA5Lmeu+NtQAfikWE2zUmhBBOGbPsJL/gqj8MwOV92SfrnvWwW52w16LFbLshIy7CLfEDEP4bFkt/+AHrPvzJ98ywtohZY/afwzHlphgMCglHlCEGCckLMHloTzirP8SyZf8B7307EvE7xA/TIXz8NdBph7B8sUh66B5c2mhHcHBP2C1v45P/8oz/wZ5ev0XsyKsQM3UyrgnTYsjVBhgmJMA470aESjPtPGfZNVR/BvORyzHx+qswMva36Fn+CXb+tw8MNxmgC78Kvxs6CDr9SMTcPA8L/hCM4yeCEYyDKH2/BPtxHGUnwjF5TAQirruxOe8UIx64/TIctf6CfuxaNs2M+99/4eCz266MRlz873C5Tgd9NDu+38Vj5l1GJEXbUfwZn6oYi/TCv+Mvt7Pj+Q87nh+ar1dTWb97BK8uMyLucp20TwO/Jgkx0F5kQ+nf/4H/sAu3Z/txXD4xBleNjMNN11+OQTo9RrJ8Mx9IxZRh7NpvfwlpL1nEN23Is+yC/1eK97ynS0r77td8nQkhXUrXm2UnrPvczj43s4A08BKkPKFFgpzsRo3UJ4Zg3EB+B2gDqrf8iAr5iXZoQNXrf0VRVTBG3RiP+KlxiO7vgHULa7mkNM96s76cg4LtVjRo9IidyvLdGA3V9nykbTsqcjSzvJaOv75eCutJNfTjeJlsGTMUqkOVUvefL44NmVi6pgpOVQQS/pbDWkomZL1gQpU9CLrRcVIZ1w+qRfGSIrSYgrExC8lLTbCwiOzKGzuMtYbeWIriFlHaAfOSFGR/ZIGtmw6GieL4fh8FbWMVzBt3iHx+qKpE1REVtNfK+4y/MQahx1kraWkKcl0XzmFGZnIWivgY00AD4ni+qbEY0s2GsnfZcS8xt5jAQAg5vynv95B+3xPGSX2gU5+AecFxrBPpMvF7SA0/o2J9PUp5l1V7+PrmgXNMXGYRUgxOlD6VhKwtIrG9zoPrRQjpHF3vmxrc2P91EtmP1yK1RTDifkbxP+qQv+I0gtF5wQBDuJrPGkDV6QYjJlaa0l6HOl+zKgghpIMoLiCR06efmwRDCItH1Tuav1eu3QyI4bMRj1tRJn/dBCGEdArFddmdEedKF9TsbBSNVcNaU4l9Nj76FgzdyFGIHswCiMOCwofTUBTgVG6ZEUtfHQJbmQ1aQyyiBwJV76fS7yERQgLWpbvsSABq9qEW/TDENblgKgseIU5Ytxcj+/72BiOO/fH0jkacmOhRtTYb6RSMCCGd7PxsIRFCCDkjqIVECCGky6GARAghRBEoIBFCCFEECkiEEEIUgQISIYQQRaCARAghRBEoIBFCCFEECkiEEEIUgQISIYQQRaCARAghRBGU+9VBF/ZBUEQMgvs3/1b2L9/vwo9V+/BL279wTgghRCEC+eog5QWkvgaETLkTlw3rg+6s/faL8wQafmbpFwYhqEcQLvylAT9+U4pvPngDjmPyD2ATQghRpi4akILQPfohDE8YDjV+wHdbPsC3Wzajod4t6KgGoOeVs3Dp/xnQr8cJHCxegpryg+JJck6YkImiBQZgezYSl5SIREJIV9UlA1L3axdhxE1Dgf9txlcrCnCS/7xPay4chD63LIL+yiB898Ej+Obzw+IJP4lKr7kzUKi3w1q2GjlPFcMikiTS7ydFiA0vx8uQfVsmWlSdYSkoeCkOWlShODEVBQ6R7q6143A64bBbUbmlGDkrStDih1qbjseO0iVJyNouJ7dGfUc2CmfqoeLHEs+ORUqNRebbaTD0ljZaqFoTj9TXxMaZRAGJkHNKIAFJGZMaQv6EoVOH4gLrxyh/1S0YXRiN0JQ3MGbJGxg+cbhIZH45iB+KFqBi+wlcPPURhISI9AA5a0phWmtiixllu62wNWqgG2tE1vNG6EQed/YKntdr+Wcpq+ZbMswaBa3dzkJGBAx3+iqtmedxVKHqOweCQtjrZqShsCgbSVEtQpagQfTUeLHeGgPmjefBqBX1VpR6nxNbSnaJ5wkh5AxRQEDqgz5TxkHzcw32rVyJBvcJCwNjmoJNn6hxuEheFU7g5EevwXp8AC6bMq1dJ9JgK0X+K/lsyUXmw/NgTEyDqcYJ1bBYJI0VmdwcreZ5vZbXzWj503XxSBipgWNvIUqqAd3oJBYWWud5HKlITU7C9NvmIXeDFU61HokZ6UjwEZOc9U6or2TH2lq84m5MwCgta3Edb6XJ6bSh1Puc2FJcJp4nhJAz5OwHpL43YWBEEE5+8QHs3q26Q6U4ckRe/eHLUvwkrzb7pRwH1+8GIsahX1+RdlosyN/Jw4sGWr2c0i43jsFQtQOVW8xYtd0CZ0gk4kaL5/zlsML8wjxkbbYB6mhMf6BlSLNWVsKh0iPOx3MyNZImRELtqMQ+e6ttJEIIUYSzH5AuH8aq/x9QW+bjIzkLOLW5f8K2RX/CbnO5SPTyVRm+cw6A5qo+IuH0qLvxituJOhEIAyeCwJFymDayuFJcjmqnP11rvpW9XAILa9xoWKstWqQ1qSlGOTtOzcgE1ibzYXQq4vQq2HcWo7pRpJ02PvZkginXCPWYZOQUrobJxLY/KELeI/HsvWRXwD2dLYXPJyOmRStOg9j7slFQJOeR8r2Ugvge4mlCyHnnrAeki0J40+YwTv5P3m5y2TwMfyQf1zQtD+E34ikPvxzET6xldVHvS0TCaVDHYeFYHYsildi2RqQFSj0TBh4ELGZIIdaxGuXVctdaopQhQI5CVB5gj1qdj26/MhRuqYJTHYnYO1r228VPjWbVvhVbV3ZC/1vPKGQ9OB6oMMO0tgRVDjV0Y+cg88EUZC2MQ/D+Enksaq+DBdN4pP010W3yhhpxi3KRdqMempMWlEjjViWwqWORPDcKQSIXIeT8ooAxJObYYdSL1Sbf5GH3MytxBL1wUS++qFs52N04aQd+M2Co2PZfkDYGyfcmsyUFmc/kofDtFBh68q6yLJhEHncRNzd/mnctOXPFk4LuTgMiYEflRlcQcKCwrBpO1RCM8hE0/GE96muKnsz62npUOlTQjzPCo5cxzIhJV6rhYAGjsEak+dLbgDSvczK9ncnaQacwMBR1K+cgdRkfc8pG6qPFqHKqEDExDv125SPl8VxpLCp7/jKUslacasio5lbchIUwjtbAWV2M9LvSkC2NW2Uj7S4jiqpZXpGNEHJ+UUZA6jsAPntqfjnMZ0CfwnD07A/8XH9CbPtPFRbDWhHxbImDYbgOqq+LkXrnPORu8x0AfM2y85yNFo3Ea1kL60glzO5TsVftQDWrrPVjk3zO3jsVTXBbbQYTineyiDzweiTdKJIYw6xYRKjsKF9TzEJiG3zNsmtl5qCH45XYvMat5BozqqS7A2zY8brZbZ9lKNvPtlQa6EbKKXG/j2RtJDvK3izwnF7P0go/qWj7eAkh56yzHpB+OnKM/X8Aera3x+3CoejZG/jx8F6R4D/H9mzEx7OAdFcmii0OqIcnIP3e1ufD+Zpl5zEbbfQURGtZlfzVOrm7rkkRtvKBoMGjkBAmkvymg7YPazPU1+GoSPFWtrKEtU7UiJyQJLrF5Fl+OLAVhae4R8nnLDufMwe9HGEtSbEqs8Jxkj/WweHVInNKMyeDEcwHmBhdP3aU9d+i0tex0ddCEXLeOvstpD172efiPugXGXBNLbnwulG4+MIfcOzrtvqlTuFIGQrSlqHEBmgnzENaoDPiBHnMhpUxbqlnFxhbjFG8I0qLUbPamgDuQ9gURA5klfp+i1cAcFNTgPVfOaDSxyCJXUbdfSwwqp2wlBSeOrCcLc4GagkRQjyc/YB07AN8x2JJn+vuRJ9AZ1hdOAYDx7Ia+Lsd+N57UkTAypD9VikLjlrE3JnsOR7jlwSMiWSf/PnsOu8uMGnhA/9tzIjzSQ/jQ3GsjeRAxUeFbVbgprXl7Nh1uH5WApJG827DMqxapcwqv473w/bWQe/rM0jvIJrUQMh5SgFjSD/g6Ceb8WP3oRiWOA3dRSr6Tsag2/+Ei5u+2iYMl9yZgj5N9xsNQJ+kubg0+AdYP1iJDvma1Y05WF3BWhphcZg3O7DRHvUd1yOSBVTb517dX01LNtbvYQFCPRRj3MZ6WhUSi+Tn/4qEISrYtxdg2UaR3prtOTBbnNDwm3BDAOv2Qq9uQ+UwWXi7TYvrZ8e5zbxj1NFImRJNkxoIOU8pY1LD/wpgWbsPiPgjRhhn4SJeIx0vxXfr8rD7hcex4zm+LMGeD97Dj8fZcxcORb/ZT0AfEYQftryGg9aO+tZvB4pfMcuzxaamItFrUly/IXxGnveShLgwHZLG8q/nsaH8w9Y7yUybKtke3Md6ZJ6z/XKQV1AE0/9LQ/ywINi25CNlifskgdY4ULiR3yirgsppQcnrfnbWqViLsMU5seVmuWtRN5sFaZMJhY+cct6d3xyvFaPUzuKPIQXLX8pECt/fg5nIe3UpRp20+nGuhJBzkTICEvPz50+i3FyDX3STMeKRFxE2djguOFGDn4+5LScacNHoh6B/eBGuuCwIx0qebf2G2faqKUDeJhurqPWYnpHgETg0UXxGXssl5rdTED2YZThUjuK2hrI2mqQbWVV6A2a6Few52y8C2j5OWHeakZ+eBONTJrT4ctXWfCTfKGvfvgpF/tbqPXSI8TofaZnQ4jbcDlSCrOQsmHaz6zzYgDi+v99HABUFWLqGpRFCzkvK+z2k0D8ibOZkhPYLkqIln87dyGdeuX4Pia3+cmwfqoqzceSbwKd6E0IIOXO65M9PtNBjKNSRMeg7fFDTmEKjvQb2Lz7Cj9YfRAohhBAlOzcCEiGEkC4vkICkmDEkQggh5zcKSIQQQhSBAhIhhBBFoIBECCFEESggEUIIUQQKSIQQQhSBAhIhhBBFoIBECCFEESggEUIIUQQKSIQQQhSBAhIhhBBFoIBECCFEESggEUIIUQQKSIQQQhSBAhIhhBBFoIB0zlEj8ZnVMH1QiPQJIokQQrqALhmQdMO7YUiI2CBe+iE4SKwSQkgXoshfjJ2TE4mEIWzleC2yb7djM1tVR/VA2rxBMAy+SMojafwZ1k3VuC+nUSQQQghRknPvF2PVPZG5+LLmYORskB+7XQCHjYIRIYScC7pGQLq1D/QqvtII69o9mDpjH6ZOrWQto29QvFbKQQghpIvrGl12c0Ox9iYNS2AB6aMqLMxrhEPK2V56JDySiukGHTQ95BSn3YJ1z6WhYKe8zScHxNz7Vxgn6KFVyykOmwWbXluM/G2uvcci8+00GI4UI22zDqm3GqBjea3fWKG7TMeOdR7mvWwVeYWwZOS9FA+tpQhJaYXSeehnpCP1ZvZajRR12bFYUbYmB1nvW6RtLnZREdJG16I4rQS6B2ey1iLbUXUx4lMKRI5mTXnjU+F6Vj0mGX+dOx5DQtRQdWMJjQ7YthXC+JRJzkAIIZ3g3Ouy+4xVntJKN+huHIZVb2jxwE3dwUNU4NRIzM6CcawWzkozTGtNMG22wK7SsoAgsrA8cYvykT5Vj+AjZTDzPBvKUddHj/iMXFbZi2wuvWOwcGoQSpYmIj4+HvMeKYXFCehGJkAnsrjopo1iaQ5UbhTBaC4LPLNjoG2sRgnfz9oSWLvpEDM7C9kzRSRs0g8xC6cj6NMsJLL9+ApGPo1OQ25GPPQ9a1H6Ed+HGWUHnNBqtSIDIYScfV0jIH39I7JX1MJWzxtzFwCafoibOwxvrOiHhCvkLP6biRje/1djRsrjuch/JR/5y9JgnJOCnP+ILBMWwjhaA0dZLubcn4lcnueFDBgfM8Hq1CLm1kSRUQhRoerlDBRViJaToxA7qllEGhiNxJFykoxtj2BB4Hgl1n/ENsOMmHdjBDsWE9LvSkM2388r2Ui9Oxdlx1XQT5rHXuFOA9XeHGS8Wx5QCzFmUjS07BVly1PFPnKReX8SkpauFjkIIeTs6zLTvi2r7Zh719fIXV0L63HRyxiixR1392TtmUDYUMdr84GRSIpye6XDDruo5RMmRrEybdi6wuxZ8VsKUX4IUA2KRKxIkhyvQtl2sS4Ubaxkr9Ui+v8MIoUZPQXRLB7ZK0woYZu6aTGIUDlRuT4fzZ1zjMOM0j1sz1od3F7NOFBVVibW/We18+ayGhFj4z1alfYjdrFGCCFnnyIDkjTGwdU3wqPKdPyK9SvsuO/2vTCzwMCpwtSIk1f9ZELhWgsc3SIQn1WEooJspNxs8Kio+wXzsRwt4l4ywWRyX4oQH8ae6q0Ba9c0s9diq1ht8tF6VB5nbRp9XFNQib0hmu3Hiq0r5aASoQlm/1cheq73fkxIMfBgGQqdx82tR1G7TawGwPp6MUoOOaExJKPwg0LkLTIijo9BEUKIgigmIKlF/aiOCkbUQHndaW9ABV8JuwjJs4OkCQMS9th0N9LJRjG+5D/Lm2lINGaicEsV6oL1iJvL1v9fOuLc6+h6K0qlMR1fSwnKRTZJY4OPLrQSmCpYOA2JRJw05hSPSVeq4bSUorBGyiDYYZHGdXwvpVUim8SJhpY7OjXW4sq+OwnzXjBJLTzd6ASk5BciZ65eZCCEkLNPIbPsLsAD/7gCcZpGoEd3kfYzLG/txcJVLP7MDcUqaZYdO9T6n1ke11cR/IzqD6qR+trp3IukQewC1kqaoEXD9mwkLilBYvZqJOntMN9vRK5H8PDWPMvO5wSDsBQUvBSHYF5uxSSsnjsUlS8nIoOPHzHRCwuwdJwG5a9NR8YaOa01vmbOteZUedVRiUh/JAnRvatQnMjytCfIEUKIH7rgLLvu6Ke+oDkYNZ5E9dpvkMmCERfN4o+9ngcdnkcEI0cdKt6tRnrAwUgDjcfXDtlR8soOqZUV1FuedWbaVc3aIlpcPzsuwPEpLzXF2HGABQB9LNLGRkLlmswglG+uYntXIXJSMjqzraIO0Xich6OiCJv5GBWCoblcTiOEkLNNUfchaYZ1g/ZkIyysEm/NkBHd0LC3EdZ2f6o3IucD1mr5egd2VPGorYLOEIvogQ2spTKHtVR4wXoYc7OQMEQF5xELSrftgxTfe+sQrR8K57ZE1irjCadoITHqO7JROHMI4FTBsT0TSU+5T0qQp5enjGatv+NWlG0vR+1JltwzFEP1EdBaC5C0lE9/aKPVMyEdhQtioN5bjNT5BeB3PXnnjV1UiLRhdSj7XJTfOxLjx0ZA/Z0ZaXfnek6oIISQDtRl70Oys0DTVjDiqnedTjDiqlB5wAnNFbGInxrPljhE9rDC/PJiEYw4Cwoe/SsKt1jh6K1HrJSPLb8dCtX3W7F+i8jmB0dxOapZMFKpmiczNHPAvCQF2R9ZYOumg2Gi2M/vo6BtrIJ54w6R7/RU7ali5Wubyx8TiqOslZT1IAUjQohyKPKbGsjpCWS8iRBCOlOXbSGRjhERogb/Alr//gQIIUQZKCCda9RJiBzMHg9Ugr6ljhDSlVCX3blgQjrypjpRbgEix8Uiorcdpc8lIWujeJ4QQs4S6rI73/CvBhrCJ2mwYNTNirIVSykYEUK6HGohEUII6TTUQiKEENLlUEAihBCiCBSQCCGEKAIFJEIIIYpAAYkQQogiUEAihBCiCBSQCCGEKAIFJEIIIYpAAYkQQogiUEAihBCiCBSQCCGEKAIFJEIIIYpAAYkQQogiUEAihBCiCBSQCCGEKAIFJEIIIQoA/H8QK53+ZlopIgAAAABJRU5ErkJggg==;" parent="1" vertex="1">
          <mxGeometry x="850" y="490" width="335.25" height="356" as="geometry" />
        </mxCell>
        <mxCell id="gddQbef1XdykxiLe7t8b-12" value="後端" style="rounded=0;whiteSpace=wrap;html=1;fontSize=16;fillColor=#dae8fc;strokeColor=#6c8ebf;" parent="1" vertex="1">
          <mxGeometry x="1720" y="160" width="120" height="40" as="geometry" />
        </mxCell>
        <mxCell id="gddQbef1XdykxiLe7t8b-13" value="前端" style="rounded=0;whiteSpace=wrap;html=1;fontSize=16;fillColor=#dae8fc;strokeColor=#6c8ebf;" parent="1" vertex="1">
          <mxGeometry x="1241" y="160" width="120" height="40" as="geometry" />
        </mxCell>
        <mxCell id="gddQbef1XdykxiLe7t8b-14" value="Envoy" style="rounded=0;whiteSpace=wrap;html=1;fontSize=16;fillColor=#dae8fc;strokeColor=#6c8ebf;" parent="1" vertex="1">
          <mxGeometry x="1480" y="160" width="120" height="40" as="geometry" />
        </mxCell>
        <mxCell id="99cbLix--IBgsfvXKW-t-3" value="" style="edgeStyle=orthogonalEdgeStyle;rounded=0;orthogonalLoop=1;jettySize=auto;html=1;" edge="1" parent="1" source="gddQbef1XdykxiLe7t8b-15" target="99cbLix--IBgsfvXKW-t-2">
          <mxGeometry relative="1" as="geometry" />
        </mxCell>
        <mxCell id="gddQbef1XdykxiLe7t8b-15" value="port: 8081" style="rounded=0;whiteSpace=wrap;html=1;" parent="1" vertex="1">
          <mxGeometry x="1241" y="200" width="120" height="60" as="geometry" />
        </mxCell>
        <mxCell id="gddQbef1XdykxiLe7t8b-16" value="port: 9090" style="rounded=0;whiteSpace=wrap;html=1;" parent="1" vertex="1">
          <mxGeometry x="1720" y="200" width="120" height="60" as="geometry" />
        </mxCell>
        <mxCell id="gddQbef1XdykxiLe7t8b-17" value="啟動指令&lt;div&gt;http-server -p 8081&lt;/div&gt;" style="rounded=0;whiteSpace=wrap;html=1;fillColor=#e1d5e7;strokeColor=#9673a6;" parent="1" vertex="1">
          <mxGeometry x="1241" y="260" width="120" height="40" as="geometry" />
        </mxCell>
        <mxCell id="gddQbef1XdykxiLe7t8b-18" value="啟動指令&lt;div&gt;node .\server.js&lt;/div&gt;" style="rounded=0;whiteSpace=wrap;html=1;fillColor=#e1d5e7;strokeColor=#9673a6;" parent="1" vertex="1">
          <mxGeometry x="1720" y="260" width="120" height="40" as="geometry" />
        </mxCell>
        <mxCell id="99cbLix--IBgsfvXKW-t-18" value="" style="edgeStyle=orthogonalEdgeStyle;rounded=0;orthogonalLoop=1;jettySize=auto;html=1;" edge="1" parent="1" source="gddQbef1XdykxiLe7t8b-19" target="gddQbef1XdykxiLe7t8b-20">
          <mxGeometry relative="1" as="geometry" />
        </mxCell>
        <mxCell id="gddQbef1XdykxiLe7t8b-19" value="編譯client.js" style="rounded=0;whiteSpace=wrap;html=1;fillColor=#ffe6cc;strokeColor=#d79b00;" parent="1" vertex="1">
          <mxGeometry x="1241" y="300" width="120" height="60" as="geometry" />
        </mxCell>
        <mxCell id="gddQbef1XdykxiLe7t8b-20" value="&lt;div&gt;記得安裝 npx 跟 webpack&lt;/div&gt;npx webpack &#39;D:\code\JS\grpc-web-master\grpc-web-master\net\grpc\gateway\examples\helloworld\client.js&#39;" style="rounded=0;whiteSpace=wrap;html=1;" parent="1" vertex="1">
          <mxGeometry x="1146" y="420" width="310" height="70" as="geometry" />
        </mxCell>
        <mxCell id="99cbLix--IBgsfvXKW-t-1" value="&lt;h1 style=&quot;margin-top: 0px;&quot;&gt;HelloWorld&lt;/h1&gt;&lt;p&gt;使用官方的 example 練習，但是 run 還是失敗&lt;/p&gt;&lt;p&gt;&lt;a href=&quot;https://github.com/grpc/grpc-web/tree/master/net/grpc/gateway/examples/helloworld&quot;&gt;grpc-web/net/grpc/gateway/examples/helloworld at master · grpc/grpc-web (github.com)&lt;/a&gt;&lt;br&gt;&lt;/p&gt;" style="text;html=1;whiteSpace=wrap;overflow=hidden;rounded=0;" vertex="1" parent="1">
          <mxGeometry x="840" width="310" height="120" as="geometry" />
        </mxCell>
        <mxCell id="99cbLix--IBgsfvXKW-t-4" value="" style="edgeStyle=orthogonalEdgeStyle;rounded=0;orthogonalLoop=1;jettySize=auto;html=1;entryX=0;entryY=0.5;entryDx=0;entryDy=0;" edge="1" parent="1" source="99cbLix--IBgsfvXKW-t-2" target="gddQbef1XdykxiLe7t8b-16">
          <mxGeometry relative="1" as="geometry" />
        </mxCell>
        <mxCell id="99cbLix--IBgsfvXKW-t-2" value="port: 8080" style="rounded=0;whiteSpace=wrap;html=1;" vertex="1" parent="1">
          <mxGeometry x="1480" y="200" width="120" height="60" as="geometry" />
        </mxCell>
        <mxCell id="99cbLix--IBgsfvXKW-t-5" value="8081會打去8080" style="text;html=1;align=center;verticalAlign=middle;resizable=0;points=[];autosize=1;strokeColor=none;fillColor=none;" vertex="1" parent="1">
          <mxGeometry x="1361" y="208" width="110" height="30" as="geometry" />
        </mxCell>
        <mxCell id="99cbLix--IBgsfvXKW-t-6" value="8080會打去&lt;div&gt;後面的服務 9090&lt;/div&gt;" style="text;html=1;align=center;verticalAlign=middle;resizable=0;points=[];autosize=1;strokeColor=none;fillColor=none;" vertex="1" parent="1">
          <mxGeometry x="1600" y="190" width="110" height="40" as="geometry" />
        </mxCell>
        <mxCell id="99cbLix--IBgsfvXKW-t-7" value="啟動指令&lt;div&gt;&lt;div&gt;docker run -d -v .\envoy.yaml:/etc/envoy/envoy.yaml:ro -p 8080:8080 -p 9901:9901 envoyproxy/envoy:v1.22.0&lt;/div&gt;&lt;/div&gt;&lt;div&gt;&lt;br&gt;&lt;/div&gt;" style="rounded=0;whiteSpace=wrap;html=1;fillColor=#e1d5e7;strokeColor=#9673a6;" vertex="1" parent="1">
          <mxGeometry x="1390" y="260" width="300" height="70" as="geometry" />
        </mxCell>
        <mxCell id="99cbLix--IBgsfvXKW-t-10" value="準備 .&lt;span style=&quot;background-color: initial;&quot;&gt;proto&lt;/span&gt;" style="rounded=0;whiteSpace=wrap;html=1;" vertex="1" parent="1">
          <mxGeometry x="957.62" y="200" width="120" height="60" as="geometry" />
        </mxCell>
        <mxCell id="99cbLix--IBgsfvXKW-t-11" value="proto" style="rounded=0;whiteSpace=wrap;html=1;fontSize=16;fillColor=#dae8fc;strokeColor=#6c8ebf;" vertex="1" parent="1">
          <mxGeometry x="957.62" y="160" width="120" height="40" as="geometry" />
        </mxCell>
        <mxCell id="99cbLix--IBgsfvXKW-t-15" value="" style="edgeStyle=orthogonalEdgeStyle;rounded=0;orthogonalLoop=1;jettySize=auto;html=1;" edge="1" parent="1" source="99cbLix--IBgsfvXKW-t-12" target="99cbLix--IBgsfvXKW-t-14">
          <mxGeometry relative="1" as="geometry" />
        </mxCell>
        <mxCell id="99cbLix--IBgsfvXKW-t-12" value="編譯proto&lt;div&gt;編譯後會產出兩個檔案&lt;/div&gt;" style="rounded=0;whiteSpace=wrap;html=1;fillColor=#ffe6cc;strokeColor=#d79b00;" vertex="1" parent="1">
          <mxGeometry x="957.62" y="260" width="120" height="60" as="geometry" />
        </mxCell>
        <mxCell id="99cbLix--IBgsfvXKW-t-17" value="" style="edgeStyle=orthogonalEdgeStyle;rounded=0;orthogonalLoop=1;jettySize=auto;html=1;" edge="1" parent="1" source="99cbLix--IBgsfvXKW-t-14" target="gddQbef1XdykxiLe7t8b-11">
          <mxGeometry relative="1" as="geometry" />
        </mxCell>
        <mxCell id="99cbLix--IBgsfvXKW-t-14" value="&lt;div&gt;protoc -I=. helloworld.proto&amp;nbsp;&lt;span style=&quot;background-color: initial;&quot;&gt;--js_out=import_style=commonjs:.&amp;nbsp;&lt;/span&gt;&lt;span style=&quot;background-color: initial;&quot;&gt;--grpc-web_out=import_style=commonjs,mode=grpcwebtext:.&lt;/span&gt;&lt;/div&gt;" style="rounded=0;whiteSpace=wrap;html=1;" vertex="1" parent="1">
          <mxGeometry x="857.62" y="370" width="320" height="60" as="geometry" />
        </mxCell>
        <mxCell id="99cbLix--IBgsfvXKW-t-20" value="&lt;h1 style=&quot;margin-top: 0px;&quot;&gt;Vue3 開發遇到的困難&lt;/h1&gt;&lt;p&gt;先說結論&lt;/p&gt;&lt;p&gt;1. vue3 使用 es6，proto 編譯出來的檔案js 是 commonjs ，所以要手動轉成 es6，但手動轉可能還是會 run 失敗&lt;/p&gt;&lt;p&gt;2. 改用&amp;nbsp;&lt;span style=&quot;background-color: initial;&quot;&gt;&amp;nbsp;&lt;/span&gt;&lt;span style=&quot;background-color: initial;&quot;&gt;@protobuf-ts，讓 proto 可以輸出成 ts 這樣 vue3 也支援&lt;/span&gt;&lt;/p&gt;&lt;p&gt;&lt;span style=&quot;background-color: initial;&quot;&gt;3. 都正常引用後前端是可以正常啟動服務，可是就會遇到 helloworld 遇到的問題 503，覺得這應該是 docker image 的版本或是什麼設定有關&lt;/span&gt;&lt;/p&gt;" style="text;html=1;whiteSpace=wrap;overflow=hidden;rounded=0;" vertex="1" parent="1">
          <mxGeometry x="1280" y="520" width="350" height="380" as="geometry" />
        </mxCell>
      </root>
    </mxGraphModel>
  </diagram>
</mxfile>
